<?xml version="1.0" standalone="no"?>
<!DOCTYPE svg PUBLIC "-//W3C//DTD SVG 1.1//EN" "http://www.w3.org/Graphics/SVG/1.1/DTD/svg11.dtd" >
<svg xmlns="http://www.w3.org/2000/svg" xmlns:xlink="http://www.w3.org/1999/xlink" version="1.1">
<metadata>
Created by FontForge 20161003 at Fri Feb 10 22:53:32 2017
 By www-data
Copyright (c) Esselte UK Limited, 2000. All rights reserved.
</metadata>
<defs>
<font id="LetrasetGlobaleTT" horiz-adv-x="1024" >
  <font-face 
    font-family="LetrasetGlobaleTT"
    font-weight="400"
    font-stretch="normal"
    units-per-em="2048"
    panose-1="2 1 5 6 3 2 0 2 0 4"
    ascent="1638"
    descent="-410"
    x-height="979"
    cap-height="1366"
    bbox="-164 -459 2130 1862"
    underline-thickness="54"
    underline-position="-178"
    unicode-range="U+0020-FB02"
  />
<missing-glyph 
 />
    <glyph glyph-name=".notdef" 
 />
    <glyph glyph-name=".null" horiz-adv-x="0" 
 />
    <glyph glyph-name="nonmarkingreturn" 
 />
    <glyph glyph-name="space" unicode=" " horiz-adv-x="492" 
 />
    <glyph glyph-name="space" unicode="&#xa0;" horiz-adv-x="492" 
 />
    <glyph glyph-name="exclam" unicode="!" horiz-adv-x="512" 
d="M360 74q0 -23 -8.5 -42.5t-22.5 -33.5t-33.5 -22.5t-41.5 -8.5q-21 0 -40 8.5t-33.5 22.5t-22.5 33.5t-8 42.5q0 22 8 41.5t22.5 33.5t33.5 22.5t40 8.5q45 0 75.5 -30.5t30.5 -75.5zM309 385l-110 -31l-19 1012h150z" />
    <glyph glyph-name="quotedbl" unicode="&#x22;" horiz-adv-x="748" 
d="M309 979h-145v387h145v-387zM584 1366v-387h-146v387h146z" />
    <glyph glyph-name="numbersign" unicode="#" horiz-adv-x="1399" 
d="M76 393l12 111h281l37 358h-279l10 109h281l41 395h149l-41 -395h295l43 395h148l-41 -395h311l-41 -109h-283l-34 -358h309l-43 -111h-279l-43 -393h-149l43 393h-297l-41 -393h-150l41 393h-280zM518 504h297l35 358h-295z" />
    <glyph glyph-name="dollar" unicode="$" horiz-adv-x="1010" 
d="M100 133q72 -15 143.5 -23t145.5 -8q64 0 126 15t111 47.5t79 84t30 124.5q0 64 -23.5 109.5t-63 79t-91 58.5t-106.5 48q-66 27 -132 56.5t-118 73.5t-84.5 107.5t-32.5 157.5q0 84 26.5 143.5t73.5 99.5t112 61.5t142 27.5v174h135v-174q65 -5 130.5 -12.5t130.5 -18.5
l-19 -133q-69 12 -139.5 21.5t-145.5 9.5q-50 0 -101 -8t-92.5 -29.5t-68 -60.5t-26.5 -101q0 -65 25 -109.5t66.5 -77t95.5 -57t112 -47.5q64 -25 127.5 -55.5t113 -75.5t80.5 -109.5t31 -156.5q0 -89 -32 -160.5t-87.5 -123.5t-129.5 -82.5t-159 -37.5v-174h-133v174
q-68 3 -135 10.5t-133 18.5z" />
    <glyph glyph-name="percent" unicode="%" horiz-adv-x="1542" 
d="M367 1278q-48 0 -78 -19.5t-47.5 -52t-24 -74t-6.5 -85.5q0 -46 6 -88t23 -74t47.5 -51t79.5 -19t79 19t46.5 51t22 74t5.5 88q0 45 -6 86.5t-23 74t-46.5 51.5t-77.5 19zM1176 549q-47 0 -77 -20t-47 -52.5t-23.5 -74.5t-6.5 -87q0 -46 6 -87.5t22.5 -73.5t47 -51
t78.5 -19q50 0 80.5 19t47 51t22 73.5t5.5 87.5q0 45 -6.5 87t-23.5 74.5t-47 52.5t-78 20zM367 715q-78 0 -132.5 26t-88.5 71t-49 105.5t-15 129.5q0 67 15.5 127.5t50 105.5t88.5 71.5t131 26.5q76 0 130 -26.5t88.5 -71.5t50 -105.5t15.5 -127.5q0 -69 -15 -129.5
t-49 -105.5t-88 -71t-132 -26zM1176 -14q-79 0 -133 26t-87.5 70.5t-48 104.5t-14.5 128q0 67 15.5 127.5t49 106t87.5 72t131 26.5q76 0 130 -26.5t88.5 -72t50 -106t15.5 -127.5q0 -68 -15 -128t-48.5 -104.5t-87.5 -70.5t-133 -26zM500 -31l-101 45l645 1381l99 -45z" />
    <glyph glyph-name="ampersand" unicode="&#x26;" horiz-adv-x="1853" 
d="M543 846q0 19 -2.5 40t-10 38.5t-22 29t-39.5 11.5q-17 0 -33 -10t-30 -21q-38 -28 -62 -68.5t-37.5 -87t-18.5 -95.5t-5 -93q0 -40 3 -81t9 -81q48 50 93 92.5t79.5 89t55 102.5t20.5 134zM1782 846q0 -140 -47.5 -259t-129 -216.5t-190.5 -172.5t-232 -126t-253 -77
t-254 -26q-143 0 -245.5 45.5t-168.5 126.5t-97.5 193t-31.5 246q0 68 11.5 139.5t37.5 138t69 123t105 94.5q31 19 65.5 31t70.5 12q48 0 83 -17.5t57.5 -47t33 -68.5t10.5 -82q0 -32 -3 -64t-11 -61q37 51 82 98.5t91 94.5t89.5 95.5t77.5 101t54.5 110t20.5 123.5
q0 52 -11.5 103.5t-31.5 101.5l125 41q28 -65 47 -133.5t19 -139.5q0 -51 -12.5 -103.5t-34 -101t-50.5 -92t-61 -76.5l-711 -718q21 -39 54 -70t72.5 -52.5t83.5 -32.5t87 -11q172 0 330 47.5t303 138.5q67 42 131.5 101t114.5 129.5t81.5 149.5t33.5 163h135v0z" />
    <glyph glyph-name="quotesingle" unicode="'" horiz-adv-x="473" 
d="M309 1366v-387h-145v387h145z" />
    <glyph glyph-name="parenleft" unicode="(" horiz-adv-x="614" 
d="M344 606q0 -147 16 -272t40 -226.5t52.5 -179.5t52.5 -130.5t40 -79.5l16 -27l-123 -62l-19 33t-47 94t-61 148t-61 195.5t-47 236t-19 270.5t19 271t47 236t61 195t61 147.5t47 93l19 32.5l123 -61l-16 -27t-40 -79.5t-52.5 -130.5t-52.5 -179.5t-40 -226.5t-16 -271z
" />
    <glyph glyph-name="parenright" unicode=")" horiz-adv-x="614" 
d="M270 606q0 147 -16 271.5t-40.5 226t-53 179.5t-53 130.5t-40.5 79.5l-16 27l121 61l19.5 -32.5t48 -93t62 -147.5t62 -195t47.5 -236t19 -271t-19 -270.5t-47.5 -236t-62 -195.5t-62 -148t-48 -94l-19.5 -33l-121 62l16 27t40.5 79.5t53 130.5t53 179.5t40.5 226.5
t16 272z" />
    <glyph glyph-name="asterisk" unicode="*" horiz-adv-x="672" 
d="M383 1210l199 68l28 -92l-198 -64l123 -164l-78 -57l-121 170l-121 -170l-76 57l123 166l-201 62l29 92l201 -68l-2 211h94v-211z" />
    <glyph glyph-name="plus" unicode="+" horiz-adv-x="1155" 
d="M518 631h-428v106h428v420h117v-420h430v-106h-430v-422h-117v422z" />
    <glyph glyph-name="comma" unicode="," horiz-adv-x="459" 
d="M336 49q0 -42 -10 -84t-27.5 -82t-41 -76t-50.5 -67l-39 27q12 21 23 46t19.5 51.5t13.5 53.5t5 51q-22 0 -41.5 8t-33.5 22.5t-22.5 33.5t-8.5 41t8.5 41.5t22.5 34.5t33.5 23.5t41.5 8.5q28 0 48.5 -11t33.5 -29.5t19 -42.5t6 -50z" />
    <glyph glyph-name="hyphen" unicode="-" horiz-adv-x="569" 
d="M467 504h-365v110h365v-110z" />
    <glyph glyph-name="hyphen" unicode="&#xad;" horiz-adv-x="569" 
d="M467 504h-365v110h365v-110z" />
    <glyph glyph-name="period" unicode="." horiz-adv-x="459" 
d="M123 74q0 22 8.5 41.5t22.5 34.5t33.5 23.5t41.5 8.5t42 -8.5t34 -23.5t22.5 -34.5t8.5 -41.5t-8.5 -41.5t-22.5 -34t-34 -23t-42 -8.5t-41.5 8.5t-33.5 23t-22.5 34t-8.5 41.5z" />
    <glyph glyph-name="slash" unicode="/" horiz-adv-x="606" 
d="M616 1366l-471 -1366h-135l471 1366h135z" />
    <glyph glyph-name="zero" unicode="0" horiz-adv-x="1124" 
d="M856 758q0 52 -2 111.5t-11.5 117.5t-28 111.5t-51.5 94t-82 65t-120 24.5q-70 0 -119 -24t-81.5 -64.5t-51 -94t-27.5 -111.5t-11.5 -117t-2.5 -111v-156q0 -52 2 -111.5t11 -118t27.5 -112t51 -94.5t81.5 -65.5t120 -24.5t120 24.5t82 65t51.5 94t28 111.5t11.5 117.5
t2 111.5v156zM1012 584q0 -77 -7.5 -153t-26.5 -144.5t-51.5 -126.5t-82.5 -100.5t-120 -66.5t-163 -24t-162 24t-119 67t-82 101.5t-51 127t-26.5 144t-7.5 153.5v192q0 77 7.5 152.5t26.5 144t51 127t82 101t119 66.5t162 24t163 -24t120 -67t82.5 -101.5t51.5 -127
t26.5 -144.5t7.5 -153v-192v0z" />
    <glyph glyph-name="one" unicode="1" horiz-adv-x="649" 
d="M256 1214l-203 -61l-41 109l275 104h119v-1366h-150v1214z" />
    <glyph glyph-name="two" unicode="2" horiz-adv-x="940" 
d="M848 111v-111h-770l-17 80l398 582q35 51 65.5 96t53 91.5t35 99t12.5 118.5q0 64 -18 105.5t-51 66t-80 34t-105 9.5q-73 0 -147.5 -7t-145.5 -26l-17 111q76 15 154 24t156 9q90 0 165.5 -13t130.5 -49t86 -99.5t31 -164.5q0 -70 -16.5 -129.5t-44 -114.5t-63.5 -106.5
t-74 -104.5l-365 -501h627z" />
    <glyph glyph-name="three" unicode="3" horiz-adv-x="860" 
d="M225 -31q-101 0 -205 23l15 104q43 -11 86 -15.5t86 -4.5q89 0 168 27.5t138.5 79t94.5 126t35 168.5t-47.5 167.5t-132.5 115.5q-61 -25 -127 -37l-14 90q43 12 86.5 35t78.5 55t57.5 73.5t22.5 90.5q0 57 -17 98.5t-48.5 68t-75.5 39.5t-98 13q-60 0 -119.5 -6
t-116.5 -25l-16 105q66 15 133 24t135 9q77 0 146 -17t121.5 -54.5t83 -98t30.5 -146.5q0 -48 -13 -87t-36.5 -71.5t-55.5 -60t-69 -51.5q57 -15 102.5 -48.5t78 -78.5t50 -99t17.5 -112q0 -80 -22 -148t-61 -123.5t-93 -98t-118 -71.5t-135 -44t-145 -15z" />
    <glyph glyph-name="four" unicode="4" horiz-adv-x="1004" 
d="M674 360h-580l-14 86l260 920h149l-251 -893h436v236l149 32v-268h166l-31 -113h-135v-360h-149v360z" />
    <glyph glyph-name="five" unicode="5" horiz-adv-x="866" 
d="M799 453q0 -116 -41.5 -206t-113.5 -151.5t-168.5 -94t-205.5 -32.5q-94 0 -188 17l14 104q44 -9 87.5 -12.5t86.5 -3.5q78 0 147 30t120 81.5t80.5 120.5t29.5 147q0 74 -25 128t-68.5 88.5t-103 51t-128.5 16.5q-53 0 -105.5 -5.5t-103.5 -16.5l63 651h553l-31 -145
h-391l-41 -390q31 7 63 9t64 2q86 0 160.5 -27.5t129 -78.5t85.5 -123t31 -160z" />
    <glyph glyph-name="six" unicode="6" horiz-adv-x="1065" 
d="M684 1321q-102 -108 -195 -235t-155 -265q48 11 97 14t97 3q94 0 172.5 -29.5t134 -83.5t86.5 -130.5t31 -170.5q0 -98 -28 -181.5t-82 -144.5t-133 -96t-181 -35q-111 0 -189.5 40t-128.5 108.5t-73.5 158.5t-23.5 191q0 136 42 263t110.5 244t156 223t178.5 200l84 -74
v0zM301 707q-19 -62 -25 -132t-6 -135q0 -64 12 -128.5t42 -116.5t79.5 -84.5t124.5 -32.5q78 0 129 28t82 76t43.5 110.5t12.5 131.5q0 71 -18.5 127.5t-55.5 95.5t-92.5 59.5t-128.5 20.5q-19 0 -45.5 -0.5t-54.5 -2.5t-54.5 -6t-44.5 -11z" />
    <glyph glyph-name="seven" unicode="7" horiz-adv-x="899" 
d="M49 1366h797l14 -117q-81 -132 -151 -287.5t-128 -319t-101 -328t-70 -314.5l-170 -31l-9 8q22 84 52 188.5t66.5 217.5t79 230t89 226.5t96 206.5t101.5 171h-666v149z" />
    <glyph glyph-name="eight" unicode="8" horiz-adv-x="1059" 
d="M469 686q-99 -49 -150 -123t-51 -186q0 -59 17 -113.5t50 -96.5t82 -67.5t113 -25.5q63 0 111.5 25.5t82 67.5t50.5 96.5t17 113.5q0 68 -26.5 122.5t-71.5 94t-103 63t-121 29.5zM590 762q48 26 81 53.5t52.5 61t28 75.5t8.5 97q0 54 -15.5 98t-45 75.5t-72 48.5
t-97.5 17t-98 -17t-72.5 -48.5t-45 -75.5t-15.5 -98q0 -62 24 -112.5t64 -87.5t92.5 -59t110.5 -28zM711 725q57 -13 101 -49t74 -84.5t45 -104.5t15 -110q0 -201 -108.5 -305.5t-307.5 -104.5q-200 0 -308.5 104.5t-108.5 305.5q0 57 16.5 111.5t47 101t74 82t97.5 53.5
q-51 12 -89 46t-64 80t-39 98t-13 100q0 88 29 153t81 108t122.5 64t154.5 21q82 0 152.5 -21t122.5 -64t81 -108t29 -153q0 -52 -13.5 -102.5t-39.5 -94t-64 -77t-87 -50.5z" />
    <glyph glyph-name="nine" unicode="9" horiz-adv-x="1067" 
d="M338 57q55 45 112 101.5t109.5 119.5t97 129.5t74.5 131.5q-48 -11 -96.5 -14t-97.5 -3q-95 0 -173.5 29.5t-134 83.5t-86 131t-30.5 172q0 97 28 180t82 144t133 96t181 35q111 0 190.5 -40t129.5 -108.5t73.5 -159t23.5 -190.5q0 -94 -21 -183.5t-58 -173.5t-88.5 -162
t-111.5 -149.5t-127 -136t-136 -121.5l-74 88v0zM766 653q19 62 25 132t6 135q0 64 -12 129t-42 116.5t-80 84t-126 32.5q-78 0 -129 -28t-82 -75.5t-43.5 -110t-12.5 -130.5q0 -145 74 -225t221 -80q20 0 47 1t55 3t54.5 6t44.5 10z" />
    <glyph glyph-name="colon" unicode=":" horiz-adv-x="459" 
d="M336 760q0 -22 -8.5 -41t-23 -33.5t-34 -22.5t-41.5 -8t-41.5 8t-33.5 22.5t-22.5 33.5t-8.5 41t8.5 41.5t22.5 34.5t33.5 23.5t41.5 8.5t41.5 -8.5t34 -23.5t23 -34.5t8.5 -41.5zM336 74q0 -22 -8.5 -41t-23 -33.5t-34 -22.5t-41.5 -8t-41.5 8t-33.5 22.5t-22.5 33.5
t-8.5 41t8.5 41.5t22.5 34.5t33.5 23.5t41.5 8.5t41.5 -8.5t34 -23.5t23 -34.5t8.5 -41.5z" />
    <glyph glyph-name="semicolon" unicode=";" horiz-adv-x="459" 
d="M336 760q0 -22 -8.5 -41t-22.5 -33.5t-33 -22.5t-41 -8t-41.5 8t-34.5 22.5t-23.5 33.5t-8.5 41t8.5 41.5t23.5 34.5t34.5 23.5t41.5 8.5t41 -8.5t33 -23.5t22.5 -34.5t8.5 -41.5zM338 49q0 -42 -10 -84t-27.5 -82t-41.5 -76t-52 -67l-37 27q12 21 23 46t19.5 51.5
t13.5 53.5t5 51q-22 0 -41.5 8t-34.5 22.5t-23.5 33.5t-8.5 41t8.5 41.5t23.5 34.5t34.5 23.5t41.5 8.5q28 0 48.5 -11t33.5 -29.5t19 -42.5t6 -50z" />
    <glyph glyph-name="less" unicode="&#x3c;" 
d="M457 545l297 -377l-119 -90l-367 467l367 465l119 -90z" />
    <glyph glyph-name="equal" unicode="=" horiz-adv-x="1155" 
d="M90 551h975v-102h-975v102zM90 915h975v-104h-975v104z" />
    <glyph glyph-name="greater" unicode="&#x3e;" 
d="M387 1010l369 -465l-369 -467l-119 90l297 377l-297 375z" />
    <glyph glyph-name="question" unicode="?" horiz-adv-x="829" 
d="M51 1362q68 15 138.5 23t138.5 8q74 0 142.5 -15t121 -50t84 -92.5t31.5 -141.5q0 -67 -20.5 -115t-51.5 -87t-66.5 -75.5t-66.5 -81t-51.5 -103.5t-20.5 -143q0 -26 2.5 -52t7.5 -52l-112 -31q-3 50 -7 99.5t-4 97.5q0 75 17.5 128.5t43.5 95t56 75.5t56 69.5t43.5 76.5
t17.5 98q0 50 -17.5 86t-48 59t-71 34t-86.5 11q-65 0 -131 -8.5t-131 -22.5zM489 74q0 -23 -8 -42.5t-22.5 -33.5t-33.5 -22.5t-40 -8.5t-40.5 8.5t-34 22.5t-23 33.5t-8.5 42.5q0 22 8.5 41.5t23 33.5t34 22.5t40.5 8.5t40 -8.5t33.5 -22.5t22.5 -33.5t8 -41.5z" />
    <glyph glyph-name="at" unicode="@" horiz-adv-x="1673" 
d="M840 981q-42 0 -75.5 -20t-59.5 -53t-44 -75t-30 -87t-17.5 -88.5t-5.5 -79.5q0 -31 5.5 -57.5t19 -46t35.5 -31t55 -11.5q50 0 88 22t64.5 57t42.5 80t22 91l37 283q-44 7 -74.5 11.5t-62.5 4.5zM1161 336q-60 0 -115 31t-85 94q-31 -32 -61 -55.5t-62.5 -39t-68 -23
t-77.5 -7.5q-56 0 -95.5 18t-64 49.5t-36 74.5t-11.5 93q0 47 8.5 103t26 112t44.5 108.5t65 93t86.5 65t109.5 24.5q59 0 133 -11t152 -30l-49 -354q-3 -25 -6.5 -48.5t-3.5 -49.5q0 -31 5.5 -58.5t19 -48.5t36 -33t55.5 -12q59 0 106 33.5t79.5 84t49.5 110.5t17 114
q0 35 -8 72t-20 72q-32 84 -85 150.5t-122.5 113t-152 71.5t-171.5 25q-122 0 -232 -46.5t-193.5 -127t-133 -188.5t-49.5 -232t44 -232.5t122 -189.5t184.5 -127.5t231.5 -46.5q57 0 103.5 1t89.5 3.5t86 7.5t93 13l21 -111q-107 -25 -203 -29t-190 -4q-100 0 -191 25.5
t-168.5 72.5t-141 112.5t-108 144.5t-68.5 170.5t-24 189.5q0 100 26.5 191t74.5 170t115 143t148 109.5t173 70.5t190 25q94 0 180.5 -20.5t162 -61.5t139.5 -102.5t112 -143.5q40 -69 63 -145.5t23 -157.5q0 -82 -26 -159t-74.5 -136t-119 -95t-159.5 -36z" />
    <glyph glyph-name="A" unicode="A" horiz-adv-x="1065" 
d="M350 528h365l-183 584zM604 1366l430 -1366h-155l-123 397h-445l-123 -397h-157l432 1366h141z" />
    <glyph glyph-name="B" unicode="B" horiz-adv-x="1206" 
d="M915 403q0 60 -19.5 109.5t-55 85t-85 55t-108.5 19.5h-303v-539h301q60 0 109.5 20t85.5 55.5t55.5 85t19.5 109.5zM854 1020q0 46 -15 85t-42 67.5t-65 44.5t-85 16h-303v-426h303q47 0 85 15.5t65 44t42 67.5t15 86zM1073 403q0 -80 -21 -153t-63.5 -128.5t-107 -88.5
t-152.5 -33h-534v1366h499q64 0 122 -23.5t101.5 -65t69 -97.5t25.5 -121q0 -46 -9 -92.5t-28 -89t-49 -78t-72 -60.5q58 -16 99.5 -49.5t68 -78.5t39 -98.5t12.5 -109.5z" />
    <glyph glyph-name="C" unicode="C" horiz-adv-x="1042" 
d="M961 1237q-78 14 -156 18.5t-156 4.5q-83 0 -142 -24.5t-98.5 -67t-63 -99t-35.5 -121t-15.5 -133t-3.5 -133.5q0 -66 3.5 -134.5t15.5 -133t35 -121.5t63 -99.5t98.5 -67t142.5 -24.5q88 0 179.5 3.5t179.5 19.5l14 -125q-43 -13 -90.5 -20t-95.5 -10t-96 -3h-91
q-108 0 -188 28t-137.5 77t-94.5 116.5t-58.5 147t-29.5 167.5t-8 179q0 90 8.5 177.5t30 166.5t58.5 146.5t94 116.5t137 76.5t188 27.5q81 0 163.5 -7t164.5 -24z" />
    <glyph glyph-name="D" unicode="D" horiz-adv-x="1262" 
d="M344 133h205q131 0 212 43.5t125.5 118.5t59.5 175t15 214q0 75 -6 145t-23 131t-46 111.5t-74.5 86t-110.5 55.5t-152 20h-205v-1100zM195 1366h383q103 0 184 -25t142 -70t103.5 -107.5t69.5 -138.5t39 -162.5t12 -178.5q0 -140 -28 -264.5t-92.5 -217.5t-169.5 -147.5
t-260 -54.5h-383v1366z" />
    <glyph glyph-name="E" unicode="E" horiz-adv-x="1026" 
d="M965 1366l-31 -135h-590v-432h463v-133h-463v-533h621v-133h-770v1366h770z" />
    <glyph glyph-name="F" unicode="F" horiz-adv-x="905" 
d="M905 1366l-31 -135h-530v-432h406v-133h-406v-666h-149v1366h710z" />
    <glyph glyph-name="G" unicode="G" horiz-adv-x="1253" 
d="M1057 1237q-103 12 -205 17.5t-205 5.5q-82 0 -140.5 -24.5t-98.5 -67t-63 -99t-35 -121t-15.5 -133t-3.5 -133.5q0 -66 3.5 -134.5t15 -133t35 -121.5t63 -99.5t98 -67t141.5 -24.5q68 0 142.5 3.5t142.5 19.5v506l147 33v-664q-105 -20 -214 -25.5t-218 -5.5
q-107 0 -187 27.5t-137 76.5t-94 116.5t-58.5 146.5t-29.5 167t-8 179q0 90 8.5 177.5t30 166.5t58 146.5t94 116.5t137 76.5t186.5 27.5q106 0 212.5 -8t211.5 -23z" />
    <glyph glyph-name="H" unicode="H" horiz-adv-x="1276" 
d="M344 1366v-567h588v567h149v-1366h-149v666h-588v-666h-149v1366h149z" />
    <glyph glyph-name="I" unicode="I" horiz-adv-x="539" 
d="M344 1366v-1366h-149v1366h149z" />
    <glyph glyph-name="J" unicode="J" horiz-adv-x="539" 
d="M31 -272q49 43 81 95t50.5 109t25.5 118.5t7 125.5v1190h149v-1237q0 -83 -14.5 -151.5t-44.5 -127t-77 -109.5t-112 -99l-65 86v0z" />
    <glyph glyph-name="K" unicode="K" horiz-adv-x="1083" 
d="M344 1366v-551l537 551h202l-602 -623l602 -743h-202l-510 631l-27 -33v-598h-149v1366h149z" />
    <glyph glyph-name="L" unicode="L" horiz-adv-x="993" 
d="M344 1366v-1233h629v-133h-778v1366h149z" />
    <glyph glyph-name="M" unicode="M" horiz-adv-x="1618" 
d="M305 1366h148l366 -1126l367 1126h147l152 -1366h-152l-108 999l-328 -999h-156l-327 999l-109 -999h-151z" />
    <glyph glyph-name="N" unicode="N" horiz-adv-x="1276" 
d="M195 1366h180l557 -1126v1126h149v-1366h-180l-557 1102v-1102h-149v1366z" />
    <glyph glyph-name="O" unicode="O" horiz-adv-x="1294" 
d="M1006 680q0 66 -3.5 135t-15.5 133.5t-35.5 121t-63 99t-99 67t-142.5 24.5t-142 -24.5t-99 -67t-63 -99t-35 -121t-15.5 -133.5t-3.5 -135t3.5 -134.5t15.5 -132.5t35 -121t63 -99t98.5 -66.5t142.5 -24.5q83 0 142.5 24.5t99 66.5t63 99t35.5 121t15.5 132.5t3.5 134.5
zM1161 680q0 -91 -8.5 -179.5t-30 -167.5t-58 -146t-94 -116t-137 -76.5t-186.5 -27.5t-186.5 27.5t-137 76.5t-94 116t-58 146t-30 167.5t-8.5 179.5q0 92 8.5 180.5t30 167.5t58 146t94 115.5t137 76t186.5 27.5t186.5 -27.5t137 -76t94 -115.5t58 -146t30 -167.5
t8.5 -180.5z" />
    <glyph glyph-name="P" unicode="P" horiz-adv-x="1165" 
d="M895 969q0 141 -71 202.5t-208 61.5h-272v-526h272q137 0 208 61.5t71 200.5zM1053 969q0 -88 -25.5 -160.5t-73.5 -125t-118 -81.5t-160 -29h-332v-573h-149v1366h481q91 0 161.5 -28.5t118.5 -81t72.5 -125.5t24.5 -162z" />
    <glyph glyph-name="Q" unicode="Q" horiz-adv-x="1294" 
d="M1006 682q0 66 -3.5 134.5t-15.5 132.5t-35.5 121t-63 99t-99 66.5t-142.5 24.5t-142 -24.5t-98.5 -66.5t-62.5 -99t-35 -121t-15 -132.5t-3 -134.5q0 -67 3 -135.5t15 -133t35 -121t62.5 -99t98 -67t142.5 -24.5q83 0 142.5 24.5t99 67t63 99t35.5 121t15.5 133
t3.5 135.5zM1225 -190q-73 2 -144.5 7t-142.5 23q-71 19 -144 25t-147 8v94q-107 0 -186.5 27.5t-137 76.5t-94 116t-58 146.5t-30 168t-8.5 180.5q0 91 8.5 179.5t30 167.5t58 146t94 116t137 76.5t186.5 27.5t186.5 -27.5t137 -76.5t94 -116t58 -146t30 -167.5t8.5 -179.5
q0 -64 -4.5 -134t-17 -138.5t-35 -133.5t-58.5 -120t-88.5 -97t-123.5 -65q37 0 74.5 -11.5t72.5 -17.5q60 -12 122 -16t122 -4v-135z" />
    <glyph glyph-name="R" unicode="R" horiz-adv-x="1135" 
d="M344 756h201q64 0 117.5 10t92 36.5t60 72.5t21.5 118q0 73 -21.5 119.5t-60 72.5t-92 36t-117.5 10h-201v-475zM344 0h-149v1366h383q95 0 171.5 -20t130.5 -64.5t83.5 -115.5t29.5 -173q0 -72 -21 -137t-61 -115.5t-99 -82t-134 -35.5l375 -623h-174l-375 623h-160
v-623z" />
    <glyph glyph-name="S" unicode="S" horiz-adv-x="991" 
d="M106 133q73 -15 144.5 -23t142.5 -8q66 0 128.5 16t111.5 49.5t78.5 85.5t29.5 124q0 69 -28 116t-73.5 81t-104 59.5t-119 51t-119 55.5t-104 73t-73.5 102.5t-28 145.5q0 96 34 160t91.5 102t133 54t159.5 16t165 -8.5t165 -22.5l-17 -131q-71 11 -142 20t-142 9
q-51 0 -103 -8t-93.5 -29.5t-68 -60.5t-26.5 -101q0 -68 28 -114t73.5 -79t104 -57t120 -48.5t120 -54t104 -73t73.5 -106t28 -152.5q0 -102 -38.5 -179t-104 -128.5t-151.5 -77t-181 -25.5q-84 0 -166 10.5t-166 22.5z" />
    <glyph glyph-name="T" unicode="T" horiz-adv-x="981" 
d="M946 1366l-33 -133h-348v-1233h-149v1233h-365v133h895z" />
    <glyph glyph-name="U" unicode="U" horiz-adv-x="1253" 
d="M338 1366v-985q0 -142 74 -210.5t215 -68.5q142 0 216.5 68.5t74.5 210.5v985h147v-985q0 -111 -27 -189.5t-81.5 -128t-136.5 -72t-193 -22.5q-110 0 -192.5 23t-137 72.5t-82 127.5t-27.5 189v985h150z" />
    <glyph glyph-name="V" unicode="V" horiz-adv-x="1073" 
d="M184 1366l353 -1137l352 1137h153l-432 -1366h-149l-430 1366h153z" />
    <glyph glyph-name="W" unicode="W" horiz-adv-x="1649" 
d="M184 1366l287 -1135l277 1135h149l281 -1135l284 1135h156l-363 -1366h-163l-269 1135l-266 -1135h-168l-358 1366h153z" />
    <glyph glyph-name="X" unicode="X" horiz-adv-x="1071" 
d="M221 1366l314 -530l313 530h162l-404 -659l434 -707h-159l-346 580l-345 -580h-159l434 707l-404 659h160z" />
    <glyph glyph-name="Y" unicode="Y" horiz-adv-x="1018" 
d="M182 1366l326 -655l323 655h166l-413 -831v-535h-150v535l-414 831h162z" />
    <glyph glyph-name="Z" unicode="Z" horiz-adv-x="1038" 
d="M952 1366l15 -102l-699 -1131h684v-133h-864l-16 102l700 1131h-684v133h864z" />
    <glyph glyph-name="bracketleft" unicode="[" horiz-adv-x="614" 
d="M559 1520v-111h-164v-1661h164v-108h-313v1880h313z" />
    <glyph glyph-name="backslash" unicode="\" horiz-adv-x="700" 
d="M150 1366l550 -1366h-149l-551 1366h150z" />
    <glyph glyph-name="bracketright" unicode="]" horiz-adv-x="614" 
d="M369 -360h-314v108h166v1661h-166v111h314v-1880z" />
    <glyph glyph-name="asciicircum" unicode="^" horiz-adv-x="1120" 
d="M483 1366h154l311 -754h-157l-230 559l-231 -559h-158z" />
    <glyph glyph-name="underscore" unicode="_" 
d="M1024 -143v-111h-1024v111h1024z" />
    <glyph glyph-name="grave" unicode="`" 
d="M739 1212l-49 -84l-405 183l77 139z" />
    <glyph glyph-name="a" unicode="a" horiz-adv-x="1061" 
d="M887 217q0 -56 5 -110t23 -107h-143q-17 17 -21.5 36.5t-2.5 41.5q-23 -30 -59.5 -51t-78 -34.5t-84.5 -19.5t-77 -6q-66 0 -128 15.5t-111 49t-78.5 86t-29.5 126.5q0 89 35 157t93.5 114.5t135 70.5t158.5 24q54 0 106.5 -4t106.5 -12v88q0 61 -14 102.5t-42 67
t-70.5 36.5t-100.5 11q-75 0 -149 -9t-146 -22l-16 109q86 14 173 23.5t177 9.5q68 0 129.5 -18t108 -55t73.5 -92t27 -128v-500v0zM737 485q-51 8 -100.5 11.5t-97.5 3.5q-56 0 -106.5 -15.5t-88.5 -45.5t-61 -75.5t-23 -105.5q0 -48 18 -82t48 -55.5t69.5 -32t83.5 -10.5
q32 0 68 6t70.5 18.5t65.5 31t54 42.5v309z" />
    <glyph glyph-name="b" unicode="b" horiz-adv-x="1085" 
d="M324 905q31 25 70 45t82 33t86 20t81 7q105 0 169.5 -39.5t100 -105t48 -149t12.5 -171.5q0 -65 -9 -132t-28.5 -129t-51.5 -116.5t-77.5 -95t-106 -63.5t-137.5 -23q-59 0 -125 12.5t-123 32.5q-2 -10 -5.5 -17.5t-8.5 -13.5h-127v1421l150 31v-547zM324 141
q42 -21 95 -34t99 -13q67 0 115 17.5t81 48.5t53 74t30.5 93t14 105.5t3.5 112.5q0 36 -2 76.5t-9.5 80t-21.5 75t-37 63t-57 43.5t-82 16q-34 0 -72 -9t-75.5 -23t-72.5 -32.5t-62 -37.5v-656z" />
    <glyph glyph-name="c" unicode="c" horiz-adv-x="842" 
d="M760 868q-51 16 -108 23.5t-109 7.5q-58 0 -101 -17.5t-73 -48t-49.5 -71t-30.5 -86t-15 -93.5t-4 -94q0 -68 10 -141t39.5 -133t83 -98.5t140.5 -38.5q62 0 127 7t125 26l16 -111q-65 -20 -134 -25.5t-134 -5.5q-121 0 -203 41.5t-132.5 112t-72.5 165t-22 201.5
t22 201.5t72.5 165.5t132.5 112.5t203 41.5q57 0 116.5 -8.5t118.5 -22.5z" />
    <glyph glyph-name="d" unicode="d" horiz-adv-x="1090" 
d="M801 0q-17 20 -22 36.5t-5 41.5q-24 -29 -61 -49.5t-79 -34.5t-84.5 -20.5t-78.5 -6.5q-42 0 -84 3.5t-80 19.5q-45 18 -77 51.5t-53.5 76t-34 91.5t-19 98.5t-8.5 97.5t-2 89q0 92 25.5 184t76.5 166t128 120t181 46q62 0 122.5 -8.5t119.5 -22.5v442h149v-1245
q0 -41 5.5 -89.5t17.5 -86.5h-137zM766 868q-51 14 -106.5 22.5t-108.5 8.5q-85 0 -139.5 -37.5t-86 -96t-43.5 -130.5t-12 -141q0 -40 1 -86.5t6.5 -92.5t18.5 -89t37.5 -76t61.5 -52.5t92 -19.5q35 0 72.5 7.5t74 21t70.5 31t62 38.5v692z" />
    <glyph glyph-name="e" unicode="e" horiz-adv-x="1061" 
d="M270 502q0 -67 10.5 -141.5t40 -137.5t83 -104t139.5 -41q68 0 140 6t138 25l19 -109q-72 -20 -149 -25.5t-148 -5.5q-119 0 -201 44t-133 118t-73.5 170t-22.5 201q0 106 22.5 199t73.5 161.5t133 108t201 39.5q117 0 198 -39.5t131.5 -108t73.5 -161.5t23 -199h-699v0z
M801 612q0 58 -17.5 110.5t-50.5 91.5t-81 62t-109 23q-62 0 -109.5 -22t-80.5 -60t-52 -91t-25 -114h525z" />
    <glyph glyph-name="f" unicode="f" horiz-adv-x="567" 
d="M195 1090q0 78 16.5 135.5t44 97.5t63 65.5t74.5 39.5t78.5 19t73.5 5q51 0 81.5 -7l30.5 -7l-12 -113q-28 5 -52.5 7.5t-45.5 2.5q-72 0 -112.5 -24t-60 -60.5t-24 -79.5t-4.5 -81v-111h211l-31 -111h-180v-868h-151v868h-109v111h109v111z" />
    <glyph glyph-name="g" unicode="g" horiz-adv-x="1004" 
d="M641 33q-78 15 -155.5 25.5t-155.5 21.5q-15 -24 -32 -56t-32 -66.5t-25 -68t-10 -61.5q0 -39 15.5 -66t41 -44.5t58 -27t67 -13.5t68 -4.5t60.5 -0.5q50 0 97.5 9.5t84.5 32.5t59.5 61.5t22.5 97.5q0 42 -13 69.5t-35.5 45t-52 28t-63.5 17.5zM498 905
q-53 0 -95.5 -15.5t-72.5 -44t-46 -70t-16 -93.5q0 -53 16 -94.5t46 -70.5t72.5 -44.5t95.5 -15.5q52 0 94.5 15.5t72.5 44.5t46 70.5t16 94.5q0 52 -16.5 93.5t-46.5 70t-72.5 44t-93.5 15.5zM834 874q26 -42 37.5 -94.5t11.5 -97.5q0 -93 -28.5 -156t-79.5 -102
t-122 -55.5t-155 -16.5q-34 0 -67.5 1.5t-65.5 11.5q-6 -10 -13 -23.5t-13 -28.5t-9.5 -30t-3.5 -27q0 -26 27.5 -40.5t72.5 -22.5t102 -13t117 -16q59 -11 115.5 -29.5t100.5 -51.5t70.5 -84t26.5 -126q0 -94 -39 -153.5t-101.5 -93t-141 -46t-156.5 -12.5q-40 0 -88.5 1
t-98 7.5t-95.5 19.5t-81.5 37.5t-57 62t-21.5 91.5q0 31 17.5 74.5t43 89t52.5 87t47 68.5q-31 11 -52.5 31.5t-21.5 52.5q0 25 11.5 52t29 53t38 50.5t38.5 43.5q-94 49 -131 121t-37 172q0 92 28 155t79 101.5t121.5 55t156.5 16.5q23 0 49.5 -1.5t53 -5t52.5 -9.5t47 -15
h291v-105h-157v0z" />
    <glyph glyph-name="h" unicode="h" horiz-adv-x="1114" 
d="M174 1421l150 31v-522q33 18 72.5 32.5t80.5 25t82.5 16.5t79.5 6q95 0 155 -32t93.5 -86.5t46 -127.5t12.5 -154v-610h-151v610q0 57 -6.5 109.5t-28 92t-61.5 63.5t-107 24q-32 0 -68 -6t-71.5 -17t-68.5 -26t-60 -33v-817h-150v1421z" />
    <glyph glyph-name="i" unicode="i" horiz-adv-x="498" 
d="M174 979l150 31v-1010h-150v979zM141 1288q0 22 8.5 41t23.5 33t34.5 22.5t42.5 8.5q21 0 40 -8.5t33.5 -22.5t22.5 -33t8 -41t-8 -41.5t-22.5 -34.5t-33.5 -23.5t-40 -8.5q-23 0 -42.5 8.5t-34.5 23.5t-23.5 34.5t-8.5 41.5z" />
    <glyph glyph-name="j" unicode="j" horiz-adv-x="498" 
d="M141 1288q0 22 8.5 41.5t23.5 34t34.5 23t42.5 8.5q21 0 40 -8.5t33.5 -23t22.5 -34t8 -41.5q0 -21 -8 -40.5t-22.5 -34.5t-33.5 -24t-40 -9q-23 0 -42.5 9t-34.5 24t-23.5 34.5t-8.5 40.5zM10 -348q46 42 77 95t50 112.5t27 122t8 122.5v869l152 33v-953
q0 -81 -14.5 -149t-44.5 -127.5t-77 -111t-112 -99.5l-66 86v0z" />
    <glyph glyph-name="k" unicode="k" horiz-adv-x="936" 
d="M324 578l446 401h182l-518 -461l527 -518h-205l-420 412l-12 -13v-399h-150v1421l150 31v-874z" />
    <glyph glyph-name="l" unicode="l" horiz-adv-x="498" 
d="M317 233q0 -31 2.5 -56t11.5 -45.5t25.5 -38t44.5 -32.5l-32 -94q-45 16 -82.5 32.5t-63.5 45t-40.5 76t-14.5 125.5v1173l149 33v-1219z" />
    <glyph glyph-name="m" unicode="m" horiz-adv-x="1642" 
d="M174 864q0 29 -3.5 58t-12.5 55l135 33q14 -19 19 -39t3 -41q34 18 73 32.5t80 25t82 16.5t79 6q27 0 56 -5.5t56 -17t49.5 -29.5t36.5 -43q50 22 94.5 40t88.5 30t91.5 18.5t104.5 6.5q86 0 139 -36.5t82 -94t38.5 -129t9.5 -140.5v-610h-150v610q0 49 -5 100.5
t-24 93.5t-55.5 68.5t-99.5 26.5q-30 0 -65.5 -7.5t-71 -19.5t-68.5 -26.5t-59 -28.5q7 -21 11.5 -47.5t7 -54t3 -55t0.5 -50.5v-610h-149v610q0 49 -5.5 100.5t-24.5 93.5t-56 68.5t-101 26.5q-28 0 -60 -7.5t-64 -19t-61.5 -26t-53.5 -29.5v-817h-150v864z" />
    <glyph glyph-name="n" unicode="n" horiz-adv-x="1114" 
d="M174 866q0 28 -3.5 57.5t-12.5 55.5l135 31q15 -20 18.5 -37.5t3.5 -42.5q35 18 75.5 32.5t83.5 25t85.5 16.5t81.5 6q94 0 153.5 -32t93.5 -86.5t46 -127.5t12 -154v-610h-149v610q0 57 -7 109.5t-29 92t-62 63.5t-107 24q-33 0 -68.5 -6t-71 -16.5t-68.5 -25t-60 -32.5
v-819h-150v866z" />
    <glyph glyph-name="o" unicode="o" horiz-adv-x="1081" 
d="M813 489q0 48 -3.5 97t-13.5 94.5t-28.5 85.5t-48.5 69.5t-73 46.5t-103 17q-90 0 -144 -37.5t-82.5 -96.5t-37.5 -132t-9 -144q0 -49 3 -98.5t12.5 -95t27.5 -85.5t48 -69t74.5 -46t107.5 -17q92 0 145.5 36.5t81.5 95.5t35.5 132t7.5 147zM969 489q0 -110 -21 -205
t-70.5 -165.5t-131 -111t-203.5 -40.5q-123 0 -205.5 40.5t-132.5 111t-71 165.5t-21 205q0 107 22 201.5t72.5 165.5t132.5 112.5t203 41.5q119 0 200.5 -41.5t131.5 -112.5t72 -165.5t22 -201.5z" />
    <glyph glyph-name="p" unicode="p" horiz-adv-x="1085" 
d="M172 866q0 25 -3 56.5t-11 56.5l133 31q14 -22 16 -42t2 -44q33 16 72.5 31.5t81.5 27.5t83.5 19.5t78.5 7.5q105 0 172.5 -38.5t106.5 -102.5t54 -148t15 -174q0 -69 -8 -138.5t-26.5 -133.5t-49.5 -120t-76.5 -97.5t-108 -65t-143.5 -23.5q-60 0 -122 8t-122 23v-399
h-145v1265zM317 111q53 -16 109.5 -24.5t112.5 -8.5q66 0 111.5 20.5t76.5 55.5t48.5 81.5t26.5 98.5t11 107t2 106q0 56 -8 118t-32.5 114t-68.5 86t-116 34q-32 0 -68 -7.5t-72.5 -20t-70.5 -28t-62 -30.5v-702z" />
    <glyph glyph-name="q" unicode="q" horiz-adv-x="1092" 
d="M768 838q-23 10 -50 19t-55 15t-56.5 9.5t-53.5 3.5q-61 0 -105.5 -18.5t-76 -50.5t-51.5 -74.5t-31 -90.5t-15 -99t-4 -99q0 -36 3 -78t11 -83.5t23 -80t39 -68t58 -47.5t81 -18q34 0 71.5 5.5t74.5 16t72.5 25.5t64.5 33v680zM768 -399v446q-35 -18 -77.5 -33
t-87 -25.5t-89 -16t-84.5 -5.5q-64 0 -113 21.5t-84 58.5t-58 85.5t-37 102.5t-19.5 110t-5.5 108q0 65 9.5 130.5t29.5 125.5t52 112t78 90t106 60t136 22q29 0 61.5 -3t65.5 -9t64.5 -14.5t60.5 -18.5q3 19 19 31h123v-1378h-150z" />
    <glyph glyph-name="r" unicode="r" horiz-adv-x="629" 
d="M174 866q0 28 -3.5 57.5t-12.5 55.5l135 31q15 -22 18.5 -38t3.5 -42q35 18 75.5 32.5t82.5 25t84 16.5t80 6h33l-52 -140q-17 8 -35 11.5t-36 3.5q-26 0 -55.5 -5.5t-59.5 -15t-58 -21.5t-52 -24v-819h-148v866z" />
    <glyph glyph-name="s" unicode="s" horiz-adv-x="840" 
d="M694 868q-63 17 -127 24t-129 7q-33 0 -69 -4t-66.5 -17.5t-50 -38.5t-19.5 -67q0 -44 22 -74.5t58 -52.5t81.5 -39.5t93.5 -36t93.5 -42t81.5 -57.5t58 -82.5t22 -117.5q0 -78 -33.5 -135t-87.5 -94t-122.5 -54.5t-137.5 -17.5q-74 0 -146 10t-146 21l14 111
q60 -11 118 -22t120 -11q43 0 90 10t86 33t64.5 59.5t25.5 89.5q0 48 -22 81t-58 58t-81.5 44t-93.5 38.5t-93.5 42.5t-81.5 55t-58 76.5t-22 106.5q0 76 31.5 123t81 72.5t111.5 34t124 8.5q72 0 142.5 -9t140.5 -24z" />
    <glyph glyph-name="t" unicode="t" horiz-adv-x="567" 
d="M346 326q0 -59 6 -97t23 -65t49 -46t84 -40l-31 -109q-74 22 -127 45.5t-87.5 59.5t-51 90t-16.5 137v567h-109v111h109v287l151 32v-319h213l-33 -111h-180v-542z" />
    <glyph glyph-name="u" unicode="u" horiz-adv-x="1120" 
d="M940 162q0 -18 1 -39.5t4 -43t7.5 -42.5t10.5 -37h-140q-15 20 -19.5 36.5t-4.5 41.5q-32 -24 -72 -44t-83 -34.5t-87 -22.5t-84 -8q-95 0 -154.5 31.5t-93 86t-45.5 127.5t-12 155v610l149 31v-641q0 -57 6.5 -109.5t28.5 -93t62 -64.5t108 -24q32 0 68 6t71 17t68.5 26
t61.5 33v819l149 31v-848z" />
    <glyph glyph-name="v" unicode="v" horiz-adv-x="858" 
d="M858 979l-346 -979h-150l-342 979l148 31l270 -836l260 805h160z" />
    <glyph glyph-name="w" unicode="w" horiz-adv-x="1395" 
d="M168 1010l240 -846l219 815h159l222 -815l229 815h158l-310 -979h-157l-221 731l-222 -731h-155l-310 979z" />
    <glyph glyph-name="x" unicode="x" horiz-adv-x="930" 
d="M539 528l391 -528h-182l-283 430l-285 -430h-180l391 528l-336 451l152 31l258 -383l237 352h172z" />
    <glyph glyph-name="y" unicode="y" horiz-adv-x="858" 
d="M512 0q-20 -57 -40.5 -117.5t-47 -117.5t-61.5 -108t-84 -89l-76 74q30 23 56 68t47.5 97.5t39 104.5t29.5 88q-6 0 -12 7.5t-11.5 17.5t-9.5 20.5t-6 17.5l-316 916l148 31l270 -836l260 805h160z" />
    <glyph glyph-name="z" unicode="z" horiz-adv-x="911" 
d="M834 979l16 -78l-580 -790h564v-111h-756l-17 78l580 790h-563v111h756z" />
    <glyph glyph-name="braceleft" unicode="{" horiz-adv-x="614" 
d="M567 1409q-24 0 -53 1.5t-54 -4.5t-42 -22.5t-17 -52.5v-547q0 -41 -15 -76t-40.5 -61.5t-60 -44t-72.5 -24.5q38 -6 72.5 -23.5t60 -44t40.5 -61t15 -74.5v-547q0 -36 17 -53t42.5 -23t54 -5t52.5 1v-108h-166q-33 0 -60.5 11t-47 30.5t-30.5 46.5t-11 59v588
q0 33 -11.5 60.5t-31.5 47t-47.5 30.5t-59.5 11v111q33 0 60.5 11t47.5 30.5t31 47t11 60.5v588q0 32 11 59.5t30.5 47t46.5 30.5t59 11h168v-111v0z" />
    <glyph glyph-name="bar" unicode="|" horiz-adv-x="559" 
d="M354 1520v-1882h-149v1882h149z" />
    <glyph glyph-name="braceright" unicode="}" horiz-adv-x="614" 
d="M47 1520h166q32 0 59 -11t46.5 -30.5t30.5 -47t11 -59.5v-588q0 -33 11 -60.5t31 -47t47.5 -30.5t60.5 -11v-111q-33 0 -60.5 -11t-47.5 -30.5t-31 -47t-11 -60.5v-588q0 -32 -11 -59t-30.5 -46.5t-47 -30.5t-60.5 -11h-164v108q24 0 52.5 -1t53.5 5t41.5 23t16.5 53v547
q0 40 15 74.5t40.5 61t60 44t72.5 23.5q-38 7 -72.5 24.5t-60 44t-40.5 61.5t-15 76v547q0 36 -16.5 52.5t-41 22.5t-53 4.5t-53.5 -1.5v111z" />
    <glyph glyph-name="asciitilde" unicode="~" horiz-adv-x="1174" 
d="M217 539q17 17 40 35.5t49 33.5t53 25t53 10q48 0 95 -16.5t93.5 -36t92.5 -35.5t93 -16q36 0 70 22.5t55 50.5l47 -69q-17 -18 -40 -37.5t-49 -35.5t-53 -26t-52 -10q-48 0 -94.5 17t-93 37.5t-92.5 37.5t-93 17q-18 0 -36.5 -6.5t-35 -17t-31 -24t-24.5 -28.5z" />
    <glyph glyph-name="exclamdown" unicode="&#xa1;" horiz-adv-x="512" 
d="M164 1288q0 22 8.5 41.5t23 33.5t34 22t40.5 8q45 0 75 -30t30 -75q0 -21 -8 -40.5t-22 -34t-33.5 -23t-41.5 -8.5q-21 0 -40.5 8.5t-34 23t-23 34t-8.5 40.5zM217 979l109 31l18 -1010h-147z" />
    <glyph glyph-name="cent" unicode="&#xa2;" horiz-adv-x="858" 
d="M760 868q-53 14 -109.5 22.5t-111.5 8.5q-57 0 -99 -17.5t-72.5 -48t-49.5 -71t-30.5 -86t-15.5 -93.5t-4 -94q0 -45 4 -93.5t15.5 -94t30.5 -86t49.5 -71t72.5 -48.5t99 -18q63 0 128.5 7t127.5 26l14 -111q-51 -15 -106 -21.5t-109 -9.5v-141h-109v143
q-107 10 -178 56.5t-114.5 117.5t-61.5 160t-18 184t18 184.5t61.5 160.5t114.5 117.5t178 56.5v143h109v-143q46 -5 91.5 -12t88.5 -19z" />
    <glyph glyph-name="sterling" unicode="&#xa3;" horiz-adv-x="1081" 
d="M489 805h330v-135h-330v-537h494v-133h-854v133h213v537h-199v135h199v88q0 104 23 195.5t73.5 159t131 106.5t196.5 39q70 0 124.5 -5t92.5 -10.5t58 -10.5l20 -5l-17 -131l-19.5 4.5t-55.5 10t-87.5 10t-115.5 4.5q-52 0 -102 -15.5t-89 -58t-62.5 -119t-23.5 -197.5
v-65z" />
    <glyph glyph-name="currency" unicode="&#xa4;" horiz-adv-x="1161" 
d="M1040 1235q-75 14 -154.5 19.5t-156.5 5.5q-90 0 -151.5 -27t-101.5 -75.5t-62 -116.5t-33 -150h629v-109h-637q-2 -26 -2 -51v-51v-51t2 -51h637v-109h-629q11 -81 33 -149t62 -117t101.5 -76t151.5 -27t180 4.5t178 20.5l15 -127q-43 -12 -90.5 -18.5t-95.5 -9.5
t-96 -3h-91q-122 0 -210.5 36t-148.5 101.5t-94.5 158t-48.5 206.5h-129v109h119q-6 102 0 204h-119v109h129q14 114 48.5 206.5t94.5 158t148.5 101.5t210.5 36q82 0 164.5 -8t163.5 -23z" />
    <glyph glyph-name="yen" unicode="&#xa5;" horiz-adv-x="1079" 
d="M213 1366l326 -655l325 655h164l-301 -604h270v-111h-325l-58 -116v-86h383v-109h-383v-340h-149v340h-383v109h383v86l-59 116h-324v111h270l-301 604h162z" />
    <glyph glyph-name="brokenbar" unicode="&#xa6;" horiz-adv-x="559" 
d="M354 440v-489h-149v489h149zM354 1413v-489h-149v489h149z" />
    <glyph glyph-name="section" unicode="&#xa7;" 
d="M690 598q0 45 -17.5 77t-45 56t-62.5 43.5t-69 38.5q-30 0 -58 -8.5t-49 -25t-34 -41.5t-13 -58q0 -51 27.5 -86.5t68 -61t86 -44.5t82.5 -37q42 23 63 61t21 86zM846 133q0 -81 -32 -137.5t-85 -92.5t-121 -52.5t-139 -16.5q-74 0 -146.5 10t-144.5 23l15 117
q58 -13 116 -23t117 -10q45 0 92 8t85.5 28t62.5 55.5t24 90.5q0 51 -21.5 87t-57.5 63.5t-81.5 49t-92.5 44t-92.5 48t-81.5 60.5t-57.5 82t-21.5 113q0 43 8.5 75.5t26.5 58t45 46.5t64 41q-76 38 -110 98t-34 144q0 78 30 127t78.5 76.5t110.5 37t127 9.5q72 0 142 -9
t139 -24l-14 -117q-62 19 -126 27t-130 8q-34 0 -69 -4.5t-64 -19t-47.5 -41t-18.5 -70.5q0 -47 21.5 -79t57 -56.5t81 -44t92.5 -41t92.5 -47.5t81 -63.5t57 -89t21.5 -124.5q0 -66 -26 -123.5t-79 -99.5q28 -17 47.5 -45t32.5 -61.5t19 -69t6 -66.5z" />
    <glyph glyph-name="dieresis" unicode="&#xa8;" 
d="M608 1288q0 22 8.5 41.5t22.5 34t33.5 23t42.5 8.5q21 0 40 -8.5t33.5 -23t22.5 -34t8 -41.5q0 -21 -8 -40.5t-22.5 -34.5t-33.5 -24t-40 -9q-23 0 -42.5 9t-33.5 24t-22.5 34.5t-8.5 40.5zM225 1288q0 22 8.5 41.5t23.5 34t34.5 23t42.5 8.5q21 0 40 -8.5t33.5 -23
t22.5 -34t8 -41.5q0 -21 -8 -40.5t-22.5 -34.5t-33.5 -24t-40 -9q-23 0 -42.5 9t-34.5 24t-23.5 34.5t-8.5 40.5z" />
    <glyph glyph-name="copyright" unicode="&#xa9;" horiz-adv-x="1628" 
d="M809 307q-84 0 -142 30.5t-93 82t-50.5 119.5t-15.5 143t15.5 142t50.5 118t93 81t142 30q45 0 91 -6.5t89 -20.5l-18 -119q-37 13 -80.5 21t-81.5 8q-51 0 -82 -25t-47.5 -63t-21.5 -82.5t-5 -83.5q0 -40 5 -85t21.5 -83t47.5 -63t82 -25q46 0 92.5 6.5t91.5 20.5
l17 -117q-48 -17 -100 -23t-101 -6zM233 680q0 -80 21 -153.5t58.5 -137.5t91 -117t118 -91t139 -58.5t154.5 -20.5q120 0 225.5 45.5t184.5 124t124.5 184t45.5 224.5q0 120 -45.5 225.5t-124.5 184t-184.5 124.5t-225.5 46q-80 0 -154.5 -21t-139 -58.5t-118 -90.5
t-91 -117.5t-58.5 -138.5t-21 -154zM102 680q0 99 25.5 190t72 170.5t111.5 144.5t144.5 111t170.5 71.5t189 25.5t188.5 -25.5t169.5 -71.5t144 -111t111.5 -144.5t72 -170.5t25.5 -190q0 -98 -25.5 -189t-72 -170.5t-111.5 -144.5t-144 -111.5t-169.5 -72t-188.5 -25.5
t-189 25.5t-170.5 72t-144.5 111.5t-111.5 144.5t-72 170.5t-25.5 189z" />
    <glyph glyph-name="ordfeminine" unicode="&#xaa;" horiz-adv-x="633" 
d="M332 1100q-28 0 -52 -7.5t-42 -22t-28.5 -36t-10.5 -49.5q0 -41 29.5 -60.5t70.5 -19.5q32 0 65.5 11t55.5 32l2 146q-47 6 -90 6zM446 836q-6 8 -10 14t-6 12q-15 -12 -33.5 -20.5t-38 -13.5t-39 -7t-34.5 -2q-35 0 -69 8.5t-62 27.5t-45 49t-17 73q0 51 19.5 89.5
t52 64.5t74 39.5t86.5 13.5q24 0 48.5 -1.5t49.5 -6.5v32q0 57 -25 79t-82 22q-38 0 -76.5 -4.5t-86.5 -14.5l-13 86q56 8 103.5 12.5t95.5 4.5q36 0 69.5 -10t59.5 -30.5t41.5 -51.5t15.5 -74q0 -66 -1 -131t-1 -131q0 -29 4.5 -59t20.5 -70h-101v0z" />
    <glyph glyph-name="guillemotleft" unicode="&#xab;" horiz-adv-x="1145" 
d="M756 492l258 -328l-121 -90l-328 418l328 415l121 -90zM322 492l256 -328l-119 -90l-328 418l328 415l119 -90z" />
    <glyph glyph-name="logicalnot" unicode="&#xac;" horiz-adv-x="864" 
d="M770 1352h-676v-1338h676v1338zM80 0v1366h704v-1366h-704z" />
    <glyph glyph-name="registered" unicode="&#xae;" horiz-adv-x="1628" 
d="M715 938v-197h78q61 0 94 20.5t33 80.5q0 29 -8.5 48t-24.5 29.5t-40 14.5t-54 4h-78zM758 627h-43v-318h-123v744h219q51 0 94.5 -11.5t75 -36.5t49 -65.5t17.5 -97.5q0 -35 -9 -67.5t-27 -60t-45.5 -48.5t-64.5 -33l193 -324h-144zM1393 682q0 119 -45.5 224
t-123.5 184t-183.5 124.5t-225.5 45.5q-80 0 -154.5 -21t-139 -58.5t-118 -90.5t-91 -117t-58.5 -138t-21 -153q0 -80 21 -154t58.5 -138.5t91 -117.5t118 -91t139 -58.5t154.5 -20.5q120 0 225.5 45.5t183.5 124.5t123.5 184.5t45.5 225.5zM1526 682q0 -99 -25.5 -190
t-72 -170.5t-111.5 -144.5t-144 -111t-169.5 -71.5t-188.5 -25.5t-189 25.5t-170.5 71.5t-144.5 111t-111.5 144.5t-72 170.5t-25.5 190q0 98 25.5 189t72 170t111.5 144t144.5 111t170.5 71.5t189 25.5t188.5 -25.5t169.5 -71.5t144 -111t111.5 -144t72 -170t25.5 -189z
" />
    <glyph glyph-name="macron" unicode="&#xaf;" 
d="M246 1354h534v-131h-534v120v11z" />
    <glyph glyph-name="macron" unicode="&#x2c9;" 
d="M246 1354h534v-131h-534v120v11z" />
    <glyph glyph-name="degree" unicode="&#xb0;" horiz-adv-x="602" 
d="M301 1335q-38 0 -59.5 -17t-32 -42.5t-13.5 -57t-3 -59.5q0 -30 2 -61.5t12.5 -57.5t32.5 -42.5t61 -16.5t61.5 16.5t33.5 42.5t13.5 57.5t2.5 61.5q0 28 -3.5 59.5t-14.5 57t-33.5 42.5t-59.5 17zM301 895q-62 0 -103.5 21t-66.5 57t-36 84t-11 102q0 53 11.5 100.5
t37 83.5t67 57t101.5 21q59 0 100.5 -21t67.5 -57t37.5 -83.5t11.5 -100.5q0 -54 -11 -102t-36.5 -84t-67 -57t-102.5 -21z" />
    <glyph glyph-name="plusminus" unicode="&#xb1;" horiz-adv-x="864" 
d="M770 1352h-676v-1338h676v1338zM80 0v1366h704v-1366h-704z" />
    <glyph glyph-name="twosuperior" unicode="&#xb2;" horiz-adv-x="901" 
d="M137 627q21 20 58 53.5t79.5 74t87.5 84.5t83 85t64.5 77t33.5 60q12 39 12 80q0 43 -15.5 73t-41.5 48t-61.5 26t-74.5 8q-52 0 -106 -5t-106 -19l-13 94q59 12 118.5 19.5t119.5 7.5q64 0 121 -12t100 -41t68.5 -77.5t25.5 -121.5q0 -47 -20 -93.5t-53 -91t-74.5 -86.5
t-85.5 -80.5t-85.5 -73t-74.5 -63.5h444v-96h-591z" />
    <glyph glyph-name="threesuperior" unicode="&#xb3;" horiz-adv-x="748" 
d="M252 520q-31 0 -63 4t-78 15l14 98q40 -11 66 -13.5t49 -2.5q49 0 92 15t75.5 42.5t51 68t18.5 91.5q0 48 -22.5 84t-65.5 61q-18 -6 -37 -11.5t-51 -10.5l-14 88q63 18 105 53t42 82q0 57 -33 82.5t-90 25.5q-34 0 -70 -4t-83 -20l-15 102q53 12 95 17.5t84 5.5
q46 0 89.5 -11t77.5 -35t54 -62.5t20 -94.5q0 -48 -20.5 -83.5t-59.5 -70.5q62 -34 92.5 -90t30.5 -115q0 -74 -30 -132t-79.5 -98t-113.5 -60.5t-131 -20.5z" />
    <glyph glyph-name="acute" unicode="&#xb4;" 
d="M739 1309l-405 -183l-49 84l377 238z" />
    <glyph glyph-name="mu" unicode="&#xb5;" horiz-adv-x="1143" 
d="M946 162q0 -40 3.5 -70.5t8 -50.5t8 -30.5l3.5 -10.5h-140q-1 1 -6.5 9t-11.5 20.5t-6 23.5v25l-27 -17t-72 -37.5t-104 -37.5t-123 -17q-48 0 -85.5 8t-69.5 23v-319h-150v688v608l150 33v-641q0 -82 13 -138t38.5 -90t63.5 -48.5t89 -14.5q52 0 100 13t85 28t59.5 28
l22.5 13v817l151 33v-848z" />
    <glyph glyph-name="mu" unicode="&#x3bc;" horiz-adv-x="1143" 
d="M946 162q0 -40 3.5 -70.5t8 -50.5t8 -30.5l3.5 -10.5h-140q-1 1 -6.5 9t-11.5 20.5t-6 23.5v25l-27 -17t-72 -37.5t-104 -37.5t-123 -17q-48 0 -85.5 8t-69.5 23v-319h-150v688v608l150 33v-641q0 -82 13 -138t38.5 -90t63.5 -48.5t89 -14.5q52 0 100 13t85 28t59.5 28
l22.5 13v817l151 33v-848z" />
    <glyph glyph-name="paragraph" unicode="&#xb6;" horiz-adv-x="1055" 
d="M102 1044q0 67 25.5 126t69 102.5t102 68.5t125.5 25h147v-641h-147q-67 0 -125.5 25t-102 68.5t-69 101.5t-25.5 124zM870 -166h-149v1532h149v-1532z" />
    <glyph glyph-name="periodcentered" unicode="&#xb7;" horiz-adv-x="496" 
d="M141 702q0 22 8.5 42t22.5 35t33.5 23.5t42.5 8.5q22 0 41.5 -8.5t33.5 -23.5t22.5 -35t8.5 -42q0 -21 -8.5 -40.5t-22.5 -34t-33.5 -23t-41.5 -8.5q-23 0 -42.5 8.5t-33.5 23t-22.5 34t-8.5 40.5z" />
    <glyph glyph-name="periodcentered" unicode="&#x2219;" horiz-adv-x="496" 
d="M141 702q0 22 8.5 42t22.5 35t33.5 23.5t42.5 8.5q22 0 41.5 -8.5t33.5 -23.5t22.5 -35t8.5 -42q0 -21 -8.5 -40.5t-22.5 -34t-33.5 -23t-41.5 -8.5q-23 0 -42.5 8.5t-33.5 23t-22.5 34t-8.5 40.5z" />
    <glyph glyph-name="cedilla" unicode="&#xb8;" 
d="M412 18q37 0 76 -10t70 -30.5t51 -52t20 -75.5q0 -38 -11 -77.5t-29.5 -77t-42 -71t-48.5 -58.5l-68 51q15 19 31.5 44t30 52.5t22 55t8.5 51.5t-12 41t-30.5 28t-41 16.5t-43.5 6.5z" />
    <glyph glyph-name="onesuperior" unicode="&#xb9;" horiz-adv-x="688" 
d="M289 557v680l-156 -47l-35 92l217 84h101v-809h-127z" />
    <glyph glyph-name="ordmasculine" unicode="&#xba;" horiz-adv-x="719" 
d="M358 1311q-41 0 -66 -17.5t-39 -46.5t-19 -66t-5 -75q0 -40 4 -77t17.5 -65t39 -44.5t68.5 -16.5t68.5 16.5t39 44.5t17.5 65t4 77q0 38 -4.5 75t-18 66t-39 46.5t-67.5 17.5zM358 817q-68 0 -113 23t-72 63t-38.5 92t-11.5 111q0 58 12 110t39.5 91.5t72.5 62.5t111 23
q67 0 112.5 -23t73.5 -62.5t40 -91.5t12 -110q0 -59 -11.5 -111t-39 -92t-73 -63t-114.5 -23z" />
    <glyph glyph-name="guillemotright" unicode="&#xbb;" horiz-adv-x="1145" 
d="M252 907l326 -415l-326 -418l-121 90l258 328l-258 325zM686 907l328 -415l-328 -418l-121 90l256 328l-256 325z" />
    <glyph glyph-name="onequarter" unicode="&#xbc;" horiz-adv-x="1946" 
d="M1315 809h129l-146 -516h213v137l127 29v-166h107l-29 -103h-78v-190h-127v190h-337l-15 70zM1360 1520l-946 -1880h-135l948 1880h133zM358 557v680l-155 -47l-35 92l217 84h100v-809h-127z" />
    <glyph glyph-name="onehalf" unicode="&#xbd;" horiz-adv-x="1946" 
d="M1331 1520l-946 -1880h-135l948 1880h133zM1212 68q21 21 57.5 55t79.5 75t87.5 85.5t82.5 87t65 78.5t34 61q5 19 8.5 37.5t3.5 38.5q0 43 -15.5 73.5t-41.5 49.5t-61 27.5t-74 8.5q-56 0 -108.5 -7t-104.5 -19l-13 96q57 11 116.5 18t119.5 7q64 0 121.5 -12
t100.5 -41.5t68 -78.5t25 -122q0 -47 -20 -93t-52.5 -91t-74.5 -87.5t-85.5 -81t-85 -73.5t-73.5 -64h445v-96h-592zM330 557v680l-156 -47l-35 92l217 84h101v-809h-127z" />
    <glyph glyph-name="threequarters" unicode="&#xbe;" horiz-adv-x="1946" 
d="M264 520q-31 0 -63 4t-78 15l14 98q40 -11 66 -13.5t49 -2.5q49 0 92 15t75.5 42.5t51 68t18.5 91.5q0 95 -88 145q-18 -6 -37 -11.5t-51 -10.5l-14 88q63 18 105 53t42 82q0 57 -32.5 82.5t-89.5 25.5q-34 0 -70 -3.5t-84 -20.5l-14 102q52 12 94 17.5t84 5.5
q47 0 90.5 -11t77 -35t53.5 -62.5t20 -94.5q0 -48 -20.5 -83.5t-58.5 -70.5q62 -34 92 -90t30 -115q0 -74 -30 -132t-79.5 -98t-113.5 -60.5t-131 -20.5zM1382 809h127l-145 -516h217v137l125 29v-166h104l-26 -103h-78v-190h-125v190h-342l-12 70zM1427 1520l-946 -1880
h-135l948 1880h133z" />
    <glyph glyph-name="questiondown" unicode="&#xbf;" horiz-adv-x="829" 
d="M778 0q-68 -15 -138.5 -24t-139.5 -9q-74 0 -142 15.5t-120.5 51t-83.5 93t-31 141.5q0 67 20.5 115t50.5 87t66 75.5t66 81.5t50.5 104t20.5 143q0 50 -6 103l109 31q5 -50 8.5 -100t3.5 -99q0 -74 -17.5 -127.5t-43 -94.5t-56 -75t-56 -69.5t-43 -77t-17.5 -97.5
q0 -50 17 -86t47 -59t70.5 -34t86.5 -11q66 0 132.5 8.5t129.5 22.5zM338 1288q0 22 8.5 41.5t23 33.5t34 22t40.5 8q22 0 42 -8t34 -22t22.5 -33.5t8.5 -41.5q0 -21 -8.5 -40.5t-22.5 -34t-34 -23t-42 -8.5q-21 0 -40.5 8.5t-34 23t-23 34t-8.5 40.5z" />
    <glyph glyph-name="Agrave" unicode="&#xc0;" horiz-adv-x="1065" 
d="M350 528h365l-183 584zM604 1366l430 -1366h-155l-123 397h-445l-123 -397h-157l432 1366h141zM739 1581l-49 -84l-405 183l77 139z" />
    <glyph glyph-name="Aacute" unicode="&#xc1;" horiz-adv-x="1065" 
d="M350 528h365l-183 584zM604 1366l430 -1366h-155l-123 397h-445l-123 -397h-157l432 1366h141zM776 1678l-405 -183l-49 84l377 238z" />
    <glyph glyph-name="Acircumflex" unicode="&#xc2;" horiz-adv-x="1065" 
d="M350 528h365l-183 584zM604 1366l430 -1366h-155l-123 397h-445l-123 -397h-157l432 1366h141zM532 1774l295 -147l-43 -93l-252 101l-252 -101l-45 93z" />
    <glyph glyph-name="Atilde" unicode="&#xc3;" horiz-adv-x="1065" 
d="M350 528h365l-183 584zM604 1366l430 -1366h-155l-123 397h-445l-123 -397h-157l432 1366h141zM670 1567q-36 0 -71 9t-70.5 19.5t-71 19.5t-72.5 9q-30 0 -55 -18.5t-45 -38.5l-61 90q18 16 39 32t43.5 28.5t46.5 20t49 7.5q37 0 72 -9t70 -20.5t70.5 -20.5t72.5 -9
q31 0 55.5 19t44.5 40l59 -92q-17 -15 -37.5 -30.5t-43 -28t-46.5 -20t-49 -7.5z" />
    <glyph glyph-name="Adieresis" unicode="&#xc4;" horiz-adv-x="1065" 
d="M350 528h365l-183 584zM604 1366l430 -1366h-155l-123 397h-445l-123 -397h-157l432 1366h141zM620 1657q0 22 8.5 41.5t22.5 34t33.5 23t42.5 8.5q21 0 40 -8.5t33.5 -23t22.5 -34t8 -41.5q0 -21 -8 -40.5t-22.5 -34.5t-33.5 -24t-40 -9q-23 0 -42.5 9t-33.5 24
t-22.5 34.5t-8.5 40.5zM237 1657q0 22 8.5 41.5t23.5 34t34.5 23t42.5 8.5q21 0 40 -8.5t33.5 -23t22.5 -34t8 -41.5q0 -21 -8 -40.5t-22.5 -34.5t-33.5 -24t-40 -9q-23 0 -42.5 9t-34.5 24t-23.5 34.5t-8.5 40.5z" />
    <glyph glyph-name="Aring" unicode="&#xc5;" horiz-adv-x="1065" 
d="M350 528h365l-183 584zM604 1366l430 -1366h-155l-123 397h-445l-123 -397h-157l432 1366h141zM530 1774q-19 0 -36 -8t-30 -21t-20.5 -30.5t-7.5 -36.5q0 -20 7.5 -37.5t20.5 -30.5t30 -21t36 -8t36.5 8t30.5 21t21 30.5t8 37.5q0 19 -8 36.5t-21 30.5t-30.5 21t-36.5 8
zM530 1493q-38 0 -71.5 14.5t-58.5 40t-39.5 59t-14.5 71.5t14.5 71.5t39.5 58.5t58.5 39.5t71.5 14.5q37 0 70.5 -14.5t59 -39.5t40 -58.5t14.5 -71.5t-14.5 -71.5t-40 -59t-59 -40t-70.5 -14.5z" />
    <glyph glyph-name="AE" unicode="&#xc6;" horiz-adv-x="1677" 
d="M1616 1366l-31 -133h-588v-434h461v-133h-461v-533h619v-133h-768v395h-447l-235 -395h-166l813 1366h803zM848 1149l-371 -621h371v621z" />
    <glyph glyph-name="Ccedilla" unicode="&#xc7;" horiz-adv-x="1042" 
d="M963 1237q-79 12 -157 17.5t-159 5.5q-83 0 -141.5 -24.5t-98 -67t-63 -99.5t-35 -121.5t-15 -133t-3.5 -134.5q0 -65 3.5 -133.5t15 -133t35 -121t63 -99t98 -67t141.5 -24.5q90 0 180.5 3.5t178.5 19.5l18 -125q-36 -10 -77 -16t-83.5 -9t-84.5 -4t-79 -2
q15 -8 26.5 -22.5t19 -31.5t11 -35t3.5 -34q0 -38 -11 -78t-29.5 -78.5t-42.5 -73.5t-50 -62l-70 55q15 18 32 43.5t30.5 53.5t22.5 56.5t9 53.5q0 24 -12.5 41.5t-32 29t-42.5 17t-44 6.5l10 70q-85 15 -148 52.5t-107 91t-71.5 119.5t-43.5 139t-21.5 149t-5.5 149
q0 90 8.5 178.5t30 167.5t58.5 146.5t94.5 116.5t136.5 76.5t186 27.5q82 0 165.5 -7t164.5 -24z" />
    <glyph glyph-name="Egrave" unicode="&#xc8;" horiz-adv-x="1026" 
d="M965 1366l-31 -135h-590v-432h463v-133h-463v-533h621v-133h-770v1366h770zM739 1581l-49 -84l-405 183l77 139z" />
    <glyph glyph-name="Eacute" unicode="&#xc9;" horiz-adv-x="1026" 
d="M965 1366l-31 -135h-590v-432h463v-133h-463v-533h621v-133h-770v1366h770zM835 1678l-405 -183l-49 84l377 238z" />
    <glyph glyph-name="Ecircumflex" unicode="&#xca;" horiz-adv-x="1026" 
d="M965 1366l-31 -135h-590v-432h463v-133h-463v-533h621v-133h-770v1366h770zM575 1792l295 -147l-43 -93l-252 101l-252 -101l-45 93z" />
    <glyph glyph-name="Edieresis" unicode="&#xcb;" horiz-adv-x="1026" 
d="M965 1366l-31 -135h-590v-432h463v-133h-463v-533h621v-133h-770v1366h770zM651 1657q0 22 8.5 41.5t22.5 34t33.5 23t42.5 8.5q21 0 40 -8.5t33.5 -23t22.5 -34t8 -41.5q0 -21 -8 -40.5t-22.5 -34.5t-33.5 -24t-40 -9q-23 0 -42.5 9t-33.5 24t-22.5 34.5t-8.5 40.5z
M268 1657q0 22 8.5 41.5t23.5 34t34.5 23t42.5 8.5q21 0 40 -8.5t33.5 -23t22.5 -34t8 -41.5q0 -21 -8 -40.5t-22.5 -34.5t-33.5 -24t-40 -9q-23 0 -42.5 9t-34.5 24t-23.5 34.5t-8.5 40.5z" />
    <glyph glyph-name="Igrave" unicode="&#xcc;" horiz-adv-x="539" 
d="M455 1581l-49 -84l-406 182l78 140zM344 1366v-1366h-149v1366h149z" />
    <glyph glyph-name="Iacute" unicode="&#xcd;" horiz-adv-x="539" 
d="M541 1675l-406 -182l-49 84l377 238zM344 1366v-1366h-149v1366h149z" />
    <glyph glyph-name="Icircumflex" unicode="&#xce;" horiz-adv-x="539" 
d="M270 1776l295 -148l-43 -92l-252 100l-252 -100l-45 92zM344 1366v-1366h-149v1366h149z" />
    <glyph glyph-name="Idieresis" unicode="&#xcf;" horiz-adv-x="539" 
d="M354 1657q0 21 8.5 40.5t22.5 34t33.5 23t42.5 8.5q21 0 40 -8.5t33.5 -23t22.5 -34t8 -40.5q0 -22 -8 -41.5t-22.5 -34.5t-33.5 -24t-40 -9q-23 0 -42.5 9t-33.5 24t-22.5 34.5t-8.5 41.5zM-29 1657q0 21 8.5 40.5t23.5 34t34.5 23t42.5 8.5q21 0 40 -8.5t33.5 -23
t22.5 -34t8 -40.5q0 -22 -8 -41.5t-22.5 -34.5t-33.5 -24t-40 -9q-23 0 -42.5 9t-34.5 24t-23.5 34.5t-8.5 41.5zM344 1366v-1366h-149v1366h149z" />
    <glyph glyph-name="Eth" unicode="&#xd0;" horiz-adv-x="1262" 
d="M961 684q0 75 -6 145t-23 131t-46 111.5t-74.5 86t-110.5 55.5t-152 20h-205v-434h352v-133h-352v-533h205q131 0 212 43.5t125.5 118.5t59.5 175t15 214zM1128 684q0 -93 -12 -180t-38.5 -163t-68.5 -139t-103 -107.5t-142 -69.5t-184 -25h-385v666h-195v133h195v567
h385q155 0 260 -54.5t169 -147.5t91.5 -217t27.5 -263z" />
    <glyph glyph-name="Ntilde" unicode="&#xd1;" horiz-adv-x="1276" 
d="M195 1366h180l557 -1126v1126h149v-1366h-180l-557 1102v-1102h-149v1366zM784 1567q-36 0 -71 9t-70.5 19.5t-71 19.5t-72.5 9q-30 0 -55 -18.5t-45 -38.5l-61 90q18 16 39 32t43.5 28.5t46.5 20t49 7.5q37 0 72 -9t70 -20.5t70.5 -20.5t72.5 -9q31 0 55.5 19t44.5 40
l59 -92q-17 -15 -37.5 -30.5t-43 -28t-46.5 -20t-49 -7.5z" />
    <glyph glyph-name="Ograve" unicode="&#xd2;" horiz-adv-x="1294" 
d="M827 1581l-49 -84l-405 182l78 140zM1020 680q0 66 -3.5 135t-15.5 133.5t-35 121t-63 99t-99 67t-142 24.5q-84 0 -143 -24.5t-98.5 -67t-63 -99t-35.5 -121t-15.5 -133.5t-3.5 -135t3.5 -134.5t15.5 -132.5t35.5 -121t63 -99t98.5 -66.5t143 -24.5q83 0 142 24.5
t99 66.5t63 99t35 121t15.5 132.5t3.5 134.5zM1176 680q0 -91 -8.5 -179.5t-30 -167.5t-58 -146t-94 -116t-137 -76.5t-186.5 -27.5t-187 27.5t-137 76.5t-94 116t-58.5 146t-30 167.5t-8.5 179.5q0 92 8.5 180.5t30 167.5t58.5 146t94 115.5t137 76t187 27.5t186.5 -27.5
t137 -76t94 -115.5t58 -146t30 -167.5t8.5 -180.5z" />
    <glyph glyph-name="Oacute" unicode="&#xd3;" horiz-adv-x="1294" 
d="M1006 680q0 66 -3.5 135t-15.5 133.5t-35.5 121t-63 99t-99 67t-142.5 24.5t-142 -24.5t-99 -67t-63 -99t-35 -121t-15.5 -133.5t-3.5 -135t3.5 -134.5t15.5 -132.5t35 -121t63 -99t98.5 -66.5t142.5 -24.5q83 0 142.5 24.5t99 66.5t63 99t35.5 121t15.5 132.5t3.5 134.5
zM1161 680q0 -91 -8.5 -179.5t-30 -167.5t-58 -146t-94 -116t-137 -76.5t-186.5 -27.5t-186.5 27.5t-137 76.5t-94 116t-58 146t-30 167.5t-8.5 179.5q0 92 8.5 180.5t30 167.5t58 146t94 115.5t137 76t186.5 27.5t186.5 -27.5t137 -76t94 -115.5t58 -146t30 -167.5
t8.5 -180.5zM891 1678l-405 -183l-49 84l377 238z" />
    <glyph glyph-name="Ocircumflex" unicode="&#xd4;" horiz-adv-x="1294" 
d="M1006 680q0 66 -3.5 135t-15.5 133.5t-35.5 121t-63 99t-99 67t-142.5 24.5t-142 -24.5t-99 -67t-63 -99t-35 -121t-15.5 -133.5t-3.5 -135t3.5 -134.5t15.5 -132.5t35 -121t63 -99t98.5 -66.5t142.5 -24.5q83 0 142.5 24.5t99 66.5t63 99t35.5 121t15.5 132.5t3.5 134.5
zM1161 680q0 -91 -8.5 -179.5t-30 -167.5t-58 -146t-94 -116t-137 -76.5t-186.5 -27.5t-186.5 27.5t-137 76.5t-94 116t-58 146t-30 167.5t-8.5 179.5q0 92 8.5 180.5t30 167.5t58 146t94 115.5t137 76t186.5 27.5t186.5 -27.5t137 -76t94 -115.5t58 -146t30 -167.5
t8.5 -180.5zM647 1776l295 -147l-43 -93l-252 101l-252 -101l-45 93z" />
    <glyph glyph-name="Otilde" unicode="&#xd5;" horiz-adv-x="1294" 
d="M1006 680q0 66 -3.5 135t-15.5 133.5t-35.5 121t-63 99t-99 67t-142.5 24.5t-142 -24.5t-99 -67t-63 -99t-35 -121t-15.5 -133.5t-3.5 -135t3.5 -134.5t15.5 -132.5t35 -121t63 -99t98.5 -66.5t142.5 -24.5q83 0 142.5 24.5t99 66.5t63 99t35.5 121t15.5 132.5t3.5 134.5
zM1161 680q0 -91 -8.5 -179.5t-30 -167.5t-58 -146t-94 -116t-137 -76.5t-186.5 -27.5t-186.5 27.5t-137 76.5t-94 116t-58 146t-30 167.5t-8.5 179.5q0 92 8.5 180.5t30 167.5t58 146t94 115.5t137 76t186.5 27.5t186.5 -27.5t137 -76t94 -115.5t58 -146t30 -167.5
t8.5 -180.5zM782 1567q-36 0 -71 9t-70.5 19.5t-71 19.5t-72.5 9q-30 0 -55 -18.5t-45 -38.5l-61 90q18 16 39 32t43.5 28.5t46.5 20t49 7.5q37 0 72 -9t70 -20.5t70.5 -20.5t72.5 -9q31 0 55.5 19t44.5 40l59 -92q-17 -15 -37.5 -30.5t-43 -28t-46.5 -20t-49 -7.5z" />
    <glyph glyph-name="Odieresis" unicode="&#xd6;" horiz-adv-x="1294" 
d="M1006 680q0 66 -3.5 135t-15.5 133.5t-35.5 121t-63 99t-99 67t-142.5 24.5t-142 -24.5t-99 -67t-63 -99t-35 -121t-15.5 -133.5t-3.5 -135t3.5 -134.5t15.5 -132.5t35 -121t63 -99t98.5 -66.5t142.5 -24.5q83 0 142.5 24.5t99 66.5t63 99t35.5 121t15.5 132.5t3.5 134.5
zM1161 680q0 -91 -8.5 -179.5t-30 -167.5t-58 -146t-94 -116t-137 -76.5t-186.5 -27.5t-186.5 27.5t-137 76.5t-94 116t-58 146t-30 167.5t-8.5 179.5q0 92 8.5 180.5t30 167.5t58 146t94 115.5t137 76t186.5 27.5t186.5 -27.5t137 -76t94 -115.5t58 -146t30 -167.5
t8.5 -180.5zM735 1657q0 22 8.5 41.5t22.5 34t33.5 23t42.5 8.5q21 0 40 -8.5t33.5 -23t22.5 -34t8 -41.5q0 -21 -8 -40.5t-22.5 -34.5t-33.5 -24t-40 -9q-23 0 -42.5 9t-33.5 24t-22.5 34.5t-8.5 40.5zM352 1657q0 22 8.5 41.5t23.5 34t34.5 23t42.5 8.5q21 0 40 -8.5
t33.5 -23t22.5 -34t8 -41.5q0 -21 -8 -40.5t-22.5 -34.5t-33.5 -24t-40 -9q-23 0 -42.5 9t-34.5 24t-23.5 34.5t-8.5 40.5z" />
    <glyph glyph-name="multiply" unicode="&#xd7;" horiz-adv-x="1155" 
d="M498 682l-379 381l80 80l379 -381l378 381l80 -80l-379 -381l379 -379l-80 -80l-378 379l-379 -377l-80 78z" />
    <glyph glyph-name="Oslash" unicode="&#xd8;" horiz-adv-x="1294" 
d="M1006 682q0 48 -2.5 100t-9.5 104t-19 102.5t-31 94.5l-536 -895q46 -50 108.5 -68t130.5 -18q83 0 142.5 24.5t99 67t63 99t35.5 121t15.5 133t3.5 135.5zM860 1200q-46 35 -101.5 47.5t-111.5 12.5q-84 0 -143 -24.5t-99 -66.5t-63 -98.5t-35 -120.5t-15 -133t-3 -135
q0 -88 7.5 -182.5t35.5 -177.5l528 878v0zM1030 1227q42 -56 67 -123t39 -139t18.5 -144.5t4.5 -138.5q0 -92 -8.5 -180.5t-29.5 -167.5t-58 -146t-94 -115.5t-136.5 -76t-185.5 -27.5q-84 0 -166.5 20.5t-148.5 73.5l-131 -217l-113 70l154 252q-35 54 -56.5 117.5
t-33.5 130.5t-16.5 135t-4.5 131q0 91 8.5 179.5t30 167.5t58.5 145.5t94 115t137 76t188 27.5q74 0 148 -15.5t137 -58.5l160 266l112 -69z" />
    <glyph glyph-name="Ugrave" unicode="&#xd9;" horiz-adv-x="1253" 
d="M338 1366v-985q0 -142 74 -210.5t215 -68.5q142 0 216.5 68.5t74.5 210.5v985h147v-985q0 -111 -27 -189.5t-81.5 -128t-136.5 -72t-193 -22.5q-110 0 -192.5 23t-137 72.5t-82 127.5t-27.5 189v985h150zM792 1581l-49 -84l-405 183l77 139z" />
    <glyph glyph-name="Uacute" unicode="&#xda;" horiz-adv-x="1253" 
d="M338 1366v-985q0 -142 74 -210.5t215 -68.5q142 0 216.5 68.5t74.5 210.5v985h147v-985q0 -111 -27 -189.5t-81.5 -128t-136.5 -72t-193 -22.5q-110 0 -192.5 23t-137 72.5t-82 127.5t-27.5 189v985h150zM895 1678l-405 -183l-49 84l377 238z" />
    <glyph glyph-name="Ucircumflex" unicode="&#xdb;" horiz-adv-x="1253" 
d="M338 1366v-985q0 -142 74 -210.5t215 -68.5q142 0 216.5 68.5t74.5 210.5v985h147v-985q0 -111 -27 -189.5t-81.5 -128t-136.5 -72t-193 -22.5q-110 0 -192.5 23t-137 72.5t-82 127.5t-27.5 189v985h150zM627 1776l295 -147l-43 -93l-252 101l-252 -101l-45 93z" />
    <glyph glyph-name="Udieresis" unicode="&#xdc;" horiz-adv-x="1253" 
d="M338 1366v-985q0 -142 74 -210.5t215 -68.5q142 0 216.5 68.5t74.5 210.5v985h147v-985q0 -111 -27 -189.5t-81.5 -128t-136.5 -72t-193 -22.5q-110 0 -192.5 23t-137 72.5t-82 127.5t-27.5 189v985h150zM712 1657q0 22 8.5 41.5t22.5 34t33.5 23t42.5 8.5q21 0 40 -8.5
t33.5 -23t22.5 -34t8 -41.5q0 -21 -8 -40.5t-22.5 -34.5t-33.5 -24t-40 -9q-23 0 -42.5 9t-33.5 24t-22.5 34.5t-8.5 40.5zM329 1657q0 22 8.5 41.5t23.5 34t34.5 23t42.5 8.5q21 0 40 -8.5t33.5 -23t22.5 -34t8 -41.5q0 -21 -8 -40.5t-22.5 -34.5t-33.5 -24t-40 -9
q-23 0 -42.5 9t-34.5 24t-23.5 34.5t-8.5 40.5z" />
    <glyph glyph-name="Yacute" unicode="&#xdd;" horiz-adv-x="1018" 
d="M182 1366l326 -655l323 655h166l-413 -831v-535h-150v535l-414 831h162zM805 1671l-405 -183l-49 84l377 238z" />
    <glyph glyph-name="Thorn" unicode="&#xde;" horiz-adv-x="1165" 
d="M895 702q0 71 -18 121t-53 81.5t-87 46t-121 14.5h-272v-527h272q137 0 208 63t71 201zM1053 702q0 -87 -25.5 -160t-74 -125t-119 -81t-160.5 -29h-330v-307h-149v1366h149v-266h330q92 0 163 -28.5t119 -81t72.5 -126t24.5 -162.5z" />
    <glyph glyph-name="germandbls" unicode="&#xdf;" horiz-adv-x="1171" 
d="M174 0v864q0 108 23.5 204t75.5 168t136 114.5t205 42.5q64 0 123.5 -21t105.5 -59.5t73.5 -93.5t27.5 -123q0 -74 -20 -124t-44.5 -85.5t-44.5 -62t-20 -52.5q0 -20 18 -39t45 -41t59 -48.5t59 -62t45 -82.5t18 -108q0 -99 -34 -174.5t-94 -127t-141.5 -77.5t-175.5 -26
q-32 0 -64 4t-63 10l15 133q26 -5 55.5 -9.5t56.5 -4.5q58 0 110.5 19.5t91.5 55t62 85.5t23 112q0 59 -16 97.5t-40.5 66t-53 48.5t-53 44t-40.5 52t-16 73q0 33 8 56t19.5 42.5t25.5 38.5t25.5 44t19.5 59t8 84q0 39 -13.5 69.5t-37 51.5t-55.5 32t-68 11
q-84 0 -140 -35.5t-89.5 -92t-47 -127t-13.5 -141.5v-864h-150z" />
    <glyph glyph-name="agrave" unicode="&#xe0;" horiz-adv-x="1061" 
d="M887 217q0 -56 5 -110t23 -107h-143q-17 17 -21.5 36.5t-2.5 41.5q-23 -30 -59.5 -51t-78 -34.5t-84.5 -19.5t-77 -6q-66 0 -128 15.5t-111 49t-78.5 86t-29.5 126.5q0 89 35 157t93.5 114.5t135 70.5t158.5 24q54 0 106.5 -4t106.5 -12v88q0 61 -14 102.5t-42 67
t-70.5 36.5t-100.5 11q-75 0 -149 -9t-146 -22l-16 109q86 14 173 23.5t177 9.5q68 0 129.5 -18t108 -55t73.5 -92t27 -128v-500v0zM737 485q-51 8 -100.5 11.5t-97.5 3.5q-56 0 -106.5 -15.5t-88.5 -45.5t-61 -75.5t-23 -105.5q0 -48 18 -82t48 -55.5t69.5 -32t83.5 -10.5
q32 0 68 6t70.5 18.5t65.5 31t54 42.5v309zM705 1212l-49 -84l-405 183l77 139z" />
    <glyph glyph-name="aacute" unicode="&#xe1;" horiz-adv-x="1061" 
d="M887 217q0 -56 5 -110t23 -107h-143q-17 17 -21.5 36.5t-2.5 41.5q-23 -30 -59.5 -51t-78 -34.5t-84.5 -19.5t-77 -6q-66 0 -128 15.5t-111 49t-78.5 86t-29.5 126.5q0 89 35 157t93.5 114.5t135 70.5t158.5 24q54 0 106.5 -4t106.5 -12v88q0 61 -14 102.5t-42 67
t-70.5 36.5t-100.5 11q-75 0 -149 -9t-146 -22l-16 109q86 14 173 23.5t177 9.5q68 0 129.5 -18t108 -55t73.5 -92t27 -128v-500v0zM737 485q-51 8 -100.5 11.5t-97.5 3.5q-56 0 -106.5 -15.5t-88.5 -45.5t-61 -75.5t-23 -105.5q0 -48 18 -82t48 -55.5t69.5 -32t83.5 -10.5
q32 0 68 6t70.5 18.5t65.5 31t54 42.5v309zM764 1309l-405 -183l-49 84l377 238z" />
    <glyph glyph-name="acircumflex" unicode="&#xe2;" horiz-adv-x="1061" 
d="M887 217q0 -56 5 -110t23 -107h-143q-17 17 -21.5 36.5t-2.5 41.5q-23 -30 -59.5 -51t-78 -34.5t-84.5 -19.5t-77 -6q-66 0 -128 15.5t-111 49t-78.5 86t-29.5 126.5q0 89 35 157t93.5 114.5t135 70.5t158.5 24q54 0 106.5 -4t106.5 -12v88q0 61 -14 102.5t-42 67
t-70.5 36.5t-100.5 11q-75 0 -149 -9t-146 -22l-16 109q86 14 173 23.5t177 9.5q68 0 129.5 -18t108 -55t73.5 -92t27 -128v-500v0zM737 485q-51 8 -100.5 11.5t-97.5 3.5q-56 0 -106.5 -15.5t-88.5 -45.5t-61 -75.5t-23 -105.5q0 -48 18 -82t48 -55.5t69.5 -32t83.5 -10.5
q32 0 68 6t70.5 18.5t65.5 31t54 42.5v309zM532 1407l295 -147l-43 -93l-252 101l-252 -101l-45 93z" />
    <glyph glyph-name="atilde" unicode="&#xe3;" horiz-adv-x="1061" 
d="M887 217q0 -56 5 -110t23 -107h-143q-17 17 -21.5 36.5t-2.5 41.5q-23 -30 -59.5 -51t-78 -34.5t-84.5 -19.5t-77 -6q-66 0 -128 15.5t-111 49t-78.5 86t-29.5 126.5q0 89 35 157t93.5 114.5t135 70.5t158.5 24q54 0 106.5 -4t106.5 -12v88q0 61 -14 102.5t-42 67
t-70.5 36.5t-100.5 11q-75 0 -149 -9t-146 -22l-16 109q86 14 173 23.5t177 9.5q68 0 129.5 -18t108 -55t73.5 -92t27 -128v-500v0zM737 485q-51 8 -100.5 11.5t-97.5 3.5q-56 0 -106.5 -15.5t-88.5 -45.5t-61 -75.5t-23 -105.5q0 -48 18 -82t48 -55.5t69.5 -32t83.5 -10.5
q32 0 68 6t70.5 18.5t65.5 31t54 42.5v309zM647 1198q-36 0 -71 9t-70.5 19.5t-71 19.5t-72.5 9q-30 0 -55 -18.5t-45 -38.5l-61 90q18 16 39 32t43.5 28.5t46.5 20t49 7.5q37 0 72 -9t70 -20.5t70.5 -20.5t72.5 -9q31 0 55.5 19t44.5 40l59 -92q-17 -15 -37.5 -30.5
t-43 -28t-46.5 -20t-49 -7.5z" />
    <glyph glyph-name="adieresis" unicode="&#xe4;" horiz-adv-x="1061" 
d="M887 217q0 -56 5 -110t23 -107h-143q-17 17 -21.5 36.5t-2.5 41.5q-23 -30 -59.5 -51t-78 -34.5t-84.5 -19.5t-77 -6q-66 0 -128 15.5t-111 49t-78.5 86t-29.5 126.5q0 89 35 157t93.5 114.5t135 70.5t158.5 24q54 0 106.5 -4t106.5 -12v88q0 61 -14 102.5t-42 67
t-70.5 36.5t-100.5 11q-75 0 -149 -9t-146 -22l-16 109q86 14 173 23.5t177 9.5q68 0 129.5 -18t108 -55t73.5 -92t27 -128v-500v0zM737 485q-51 8 -100.5 11.5t-97.5 3.5q-56 0 -106.5 -15.5t-88.5 -45.5t-61 -75.5t-23 -105.5q0 -48 18 -82t48 -55.5t69.5 -32t83.5 -10.5
q32 0 68 6t70.5 18.5t65.5 31t54 42.5v309zM608 1288q0 22 8.5 41.5t22.5 34t33.5 23t42.5 8.5q21 0 40 -8.5t33.5 -23t22.5 -34t8 -41.5q0 -21 -8 -40.5t-22.5 -34.5t-33.5 -24t-40 -9q-23 0 -42.5 9t-33.5 24t-22.5 34.5t-8.5 40.5zM225 1288q0 22 8.5 41.5t23.5 34
t34.5 23t42.5 8.5q21 0 40 -8.5t33.5 -23t22.5 -34t8 -41.5q0 -21 -8 -40.5t-22.5 -34.5t-33.5 -24t-40 -9q-23 0 -42.5 9t-34.5 24t-23.5 34.5t-8.5 40.5z" />
    <glyph glyph-name="aring" unicode="&#xe5;" horiz-adv-x="1061" 
d="M887 217q0 -56 5 -110t23 -107h-143q-17 17 -21.5 36.5t-2.5 41.5q-23 -30 -59.5 -51t-78 -34.5t-84.5 -19.5t-77 -6q-66 0 -128 15.5t-111 49t-78.5 86t-29.5 126.5q0 89 35 157t93.5 114.5t135 70.5t158.5 24q54 0 106.5 -4t106.5 -12v88q0 61 -14 102.5t-42 67
t-70.5 36.5t-100.5 11q-75 0 -149 -9t-146 -22l-16 109q86 14 173 23.5t177 9.5q68 0 129.5 -18t108 -55t73.5 -92t27 -128v-500v0zM737 485q-51 8 -100.5 11.5t-97.5 3.5q-56 0 -106.5 -15.5t-88.5 -45.5t-61 -75.5t-23 -105.5q0 -48 18 -82t48 -55.5t69.5 -32t83.5 -10.5
q32 0 68 6t70.5 18.5t65.5 31t54 42.5v309zM512 1405q-19 0 -36 -8t-30 -21t-20.5 -30.5t-7.5 -36.5q0 -20 7.5 -37.5t20.5 -30.5t30 -21t36 -8t36.5 8t30.5 21t21 30.5t8 37.5q0 19 -8 36.5t-21 30.5t-30.5 21t-36.5 8zM512 1124q-38 0 -71.5 14.5t-58.5 40t-39.5 59
t-14.5 71.5t14.5 71.5t39.5 58.5t58.5 39.5t71.5 14.5q37 0 70.5 -14.5t59 -39.5t40 -58.5t14.5 -71.5t-14.5 -71.5t-40 -59t-59 -40t-70.5 -14.5z" />
    <glyph glyph-name="ae" unicode="&#xe6;" horiz-adv-x="1681" 
d="M774 236q-12 32 -20 66.5t-12.5 67.5t-6 62.5t-0.5 52.5l-16 2.5t-43 5t-63 5t-76 2.5q-62 0 -113 -17t-88 -48.5t-57.5 -76.5t-20.5 -100q0 -54 21.5 -88.5t53.5 -55t70.5 -28.5t73.5 -8q55 0 98.5 11.5t76.5 28.5t56.5 37t38 37.5t21 30t6.5 13.5zM1421 612
q0 58 -17.5 110.5t-51 91.5t-82 62t-109.5 23q-62 0 -110 -23t-81 -62t-50 -91.5t-17 -110.5h518v0zM831 129q-28 -38 -70.5 -68t-93.5 -51t-107.5 -32t-113.5 -11q-65 0 -126.5 15.5t-110 49t-78 86t-29.5 126.5q0 89 35 157t93 114.5t134 70.5t158 24q54 0 107.5 -4
t105.5 -10v88q0 60 -13.5 101t-41.5 66.5t-71 36.5t-101 11q-74 0 -148.5 -9t-146.5 -22l-16 109q86 14 174 23.5t178 9.5q40 0 82 -7.5t81 -23.5t72.5 -42t57.5 -63q24 36 62 62t82 42.5t90 24t85 7.5q118 0 199.5 -39.5t132.5 -108t73.5 -161.5t22.5 -199h-698
q0 -44 4 -93t15.5 -96t30.5 -89.5t49 -75t72 -51.5t99 -19q69 0 142 6t139 25l18 -109q-71 -20 -147.5 -26.5t-151.5 -6.5q-44 0 -92.5 9.5t-94 29.5t-83.5 50.5t-60 72.5z" />
    <glyph glyph-name="ccedilla" unicode="&#xe7;" horiz-adv-x="842" 
d="M762 868q-53 14 -109.5 22.5t-111.5 8.5q-57 0 -99 -17.5t-72.5 -48t-49.5 -71t-30.5 -86t-15.5 -93.5t-4 -94q0 -45 4 -93.5t15.5 -94t30.5 -86t49.5 -71t72.5 -48.5t99 -18q63 0 128.5 7t125.5 26l16 -111q-56 -17 -116 -23t-117 -8q17 -8 30 -23t22 -33t14 -38t5 -39
q0 -38 -11.5 -78t-30 -79t-43.5 -74.5t-52 -63.5l-70 58q16 18 33 43.5t31.5 53.5t23.5 57t9 54q0 24 -12.5 41t-32 28.5t-42.5 17t-44 6.5l12 84q-91 21 -150 71.5t-94 119.5t-49 150.5t-14 163.5q0 107 22 201.5t72.5 165.5t132.5 112.5t201 41.5q58 0 118.5 -9t116.5 -24
z" />
    <glyph glyph-name="egrave" unicode="&#xe8;" horiz-adv-x="1061" 
d="M270 502q0 -67 10.5 -141.5t40 -137.5t83 -104t139.5 -41q68 0 140 6t138 25l19 -109q-72 -20 -149 -25.5t-148 -5.5q-119 0 -201 44t-133 118t-73.5 170t-22.5 201q0 106 22.5 199t73.5 161.5t133 108t201 39.5q117 0 198 -39.5t131.5 -108t73.5 -161.5t23 -199h-699v0z
M801 612q0 58 -17.5 110.5t-50.5 91.5t-81 62t-109 23q-62 0 -109.5 -22t-80.5 -60t-52 -91t-25 -114h525zM739 1212l-49 -84l-405 183l77 139z" />
    <glyph glyph-name="eacute" unicode="&#xe9;" horiz-adv-x="1061" 
d="M270 502q0 -67 10.5 -141.5t40 -137.5t83 -104t139.5 -41q68 0 140 6t138 25l19 -109q-72 -20 -149 -25.5t-148 -5.5q-119 0 -201 44t-133 118t-73.5 170t-22.5 201q0 106 22.5 199t73.5 161.5t133 108t201 39.5q117 0 198 -39.5t131.5 -108t73.5 -161.5t23 -199h-699v0z
M801 612q0 58 -17.5 110.5t-50.5 91.5t-81 62t-109 23q-62 0 -109.5 -22t-80.5 -60t-52 -91t-25 -114h525zM792 1309l-405 -183l-49 84l377 238z" />
    <glyph glyph-name="ecircumflex" unicode="&#xea;" horiz-adv-x="1061" 
d="M270 502q0 -67 10.5 -141.5t40 -137.5t83 -104t139.5 -41q68 0 140 6t138 25l19 -109q-72 -20 -149 -25.5t-148 -5.5q-119 0 -201 44t-133 118t-73.5 170t-22.5 201q0 106 22.5 199t73.5 161.5t133 108t201 39.5q117 0 198 -39.5t131.5 -108t73.5 -161.5t23 -199h-699v0z
M801 612q0 58 -17.5 110.5t-50.5 91.5t-81 62t-109 23q-62 0 -109.5 -22t-80.5 -60t-52 -91t-25 -114h525zM547 1407l295 -147l-43 -93l-252 101l-252 -101l-45 93z" />
    <glyph glyph-name="edieresis" unicode="&#xeb;" horiz-adv-x="1061" 
d="M270 502q0 -67 10.5 -141.5t40 -137.5t83 -104t139.5 -41q68 0 140 6t138 25l19 -109q-72 -20 -149 -25.5t-148 -5.5q-119 0 -201 44t-133 118t-73.5 170t-22.5 201q0 106 22.5 199t73.5 161.5t133 108t201 39.5q117 0 198 -39.5t131.5 -108t73.5 -161.5t23 -199h-699v0z
M801 612q0 58 -17.5 110.5t-50.5 91.5t-81 62t-109 23q-62 0 -109.5 -22t-80.5 -60t-52 -91t-25 -114h525zM628 1288q0 22 8.5 41.5t22.5 34t33.5 23t42.5 8.5q21 0 40 -8.5t33.5 -23t22.5 -34t8 -41.5q0 -21 -8 -40.5t-22.5 -34.5t-33.5 -24t-40 -9q-23 0 -42.5 9t-33.5 24
t-22.5 34.5t-8.5 40.5zM245 1288q0 22 8.5 41.5t23.5 34t34.5 23t42.5 8.5q21 0 40 -8.5t33.5 -23t22.5 -34t8 -41.5q0 -21 -8 -40.5t-22.5 -34.5t-33.5 -24t-40 -9q-23 0 -42.5 9t-34.5 24t-23.5 34.5t-8.5 40.5z" />
    <glyph glyph-name="igrave" unicode="&#xec;" horiz-adv-x="498" 
d="M455 1212l-49 -84l-406 183l78 139zM174 979l150 31v-1010h-150v979z" />
    <glyph glyph-name="iacute" unicode="&#xed;" horiz-adv-x="498" 
d="M498 1309l-406 -183l-49 84l377 238zM174 979l150 31v-1010h-150v979z" />
    <glyph glyph-name="icircumflex" unicode="&#xee;" horiz-adv-x="498" 
d="M250 1407l295 -147l-43 -93l-252 101l-252 -101l-45 93zM174 979l150 31v-1010h-150v979z" />
    <glyph glyph-name="idieresis" unicode="&#xef;" horiz-adv-x="498" 
d="M336 1288q0 22 8.5 41.5t22.5 34t33.5 23t41.5 8.5t41 -8.5t33 -23t22.5 -34t8.5 -41.5q0 -21 -8.5 -40.5t-22.5 -34.5t-33 -24t-41 -9t-41.5 9t-33.5 24t-22.5 34.5t-8.5 40.5zM-47 1288q0 22 8.5 41.5t23.5 34t34.5 23t41.5 8.5t41 -8.5t33 -23t22.5 -34t8.5 -41.5
q0 -21 -8.5 -40.5t-22.5 -34.5t-33 -24t-41 -9t-41.5 9t-34.5 24t-23.5 34.5t-8.5 40.5zM174 979l150 31v-1010h-150v979z" />
    <glyph glyph-name="eth" unicode="&#xf0;" horiz-adv-x="1063" 
d="M795 440q0 65 -6.5 134t-24.5 131q-19 7 -45.5 11.5t-54.5 7t-54.5 3t-46.5 0.5q-147 0 -221 -80.5t-74 -224.5q0 -68 12.5 -130.5t43.5 -110t82 -75.5t129 -28q76 0 126 32.5t80 84t42 116t12 129.5zM950 463q0 -100 -23.5 -190t-74 -158t-129 -108t-188.5 -40
q-101 0 -179.5 35t-132.5 96t-82 144t-28 180q0 95 30.5 172t86 131t133 83.5t172.5 29.5q48 0 97 -3t97 -16q-35 82 -84 157t-100 146l-238 -86l-39 105l205 71q-22 29 -44.5 56t-47.5 53l84 72q32 -32 64 -66.5t63 -69.5l178 64l37 -102l-141 -52q58 -76 109.5 -158.5
t90.5 -171t61.5 -182.5t22.5 -192z" />
    <glyph glyph-name="ntilde" unicode="&#xf1;" horiz-adv-x="1114" 
d="M174 866q0 28 -3.5 57.5t-12.5 55.5l135 31q15 -20 18.5 -37.5t3.5 -42.5q35 18 75.5 32.5t83.5 25t85.5 16.5t81.5 6q94 0 153.5 -32t93.5 -86.5t46 -127.5t12 -154v-610h-149v610q0 57 -7 109.5t-29 92t-62 63.5t-107 24q-33 0 -68.5 -6t-71 -16.5t-68.5 -25t-60 -32.5
v-819h-150v866zM676 1198q-36 0 -71 9t-70.5 19.5t-71 19.5t-72.5 9q-30 0 -55 -18.5t-45 -38.5l-61 90q18 16 39 32t43.5 28.5t46.5 20t49 7.5q37 0 72 -9t70 -20.5t70.5 -20.5t72.5 -9q31 0 55.5 19t44.5 40l59 -92q-17 -15 -37.5 -30.5t-43 -28t-46.5 -20t-49 -7.5z" />
    <glyph glyph-name="ograve" unicode="&#xf2;" horiz-adv-x="1081" 
d="M813 489q0 48 -3.5 97t-13.5 94.5t-28.5 85.5t-48.5 69.5t-73 46.5t-103 17q-90 0 -144 -37.5t-82.5 -96.5t-37.5 -132t-9 -144q0 -49 3 -98.5t12.5 -95t27.5 -85.5t48 -69t74.5 -46t107.5 -17q92 0 145.5 36.5t81.5 95.5t35.5 132t7.5 147zM969 489q0 -110 -21 -205
t-70.5 -165.5t-131 -111t-203.5 -40.5q-123 0 -205.5 40.5t-132.5 111t-71 165.5t-21 205q0 107 22 201.5t72.5 165.5t132.5 112.5t203 41.5q119 0 200.5 -41.5t131.5 -112.5t72 -165.5t22 -201.5zM751 1212l-49 -84l-405 183l77 139z" />
    <glyph glyph-name="oacute" unicode="&#xf3;" horiz-adv-x="1081" 
d="M813 489q0 48 -3.5 97t-13.5 94.5t-28.5 85.5t-48.5 69.5t-73 46.5t-103 17q-90 0 -144 -37.5t-82.5 -96.5t-37.5 -132t-9 -144q0 -49 3 -98.5t12.5 -95t27.5 -85.5t48 -69t74.5 -46t107.5 -17q92 0 145.5 36.5t81.5 95.5t35.5 132t7.5 147zM969 489q0 -110 -21 -205
t-70.5 -165.5t-131 -111t-203.5 -40.5q-123 0 -205.5 40.5t-132.5 111t-71 165.5t-21 205q0 107 22 201.5t72.5 165.5t132.5 112.5t203 41.5q119 0 200.5 -41.5t131.5 -112.5t72 -165.5t22 -201.5zM786 1309l-405 -183l-49 84l377 238z" />
    <glyph glyph-name="ocircumflex" unicode="&#xf4;" horiz-adv-x="1081" 
d="M813 489q0 48 -3.5 97t-13.5 94.5t-28.5 85.5t-48.5 69.5t-73 46.5t-103 17q-90 0 -144 -37.5t-82.5 -96.5t-37.5 -132t-9 -144q0 -49 3 -98.5t12.5 -95t27.5 -85.5t48 -69t74.5 -46t107.5 -17q92 0 145.5 36.5t81.5 95.5t35.5 132t7.5 147zM969 489q0 -110 -21 -205
t-70.5 -165.5t-131 -111t-203.5 -40.5q-123 0 -205.5 40.5t-132.5 111t-71 165.5t-21 205q0 107 22 201.5t72.5 165.5t132.5 112.5t203 41.5q119 0 200.5 -41.5t131.5 -112.5t72 -165.5t22 -201.5zM534 1407l295 -147l-43 -93l-252 101l-252 -101l-45 93z" />
    <glyph glyph-name="otilde" unicode="&#xf5;" horiz-adv-x="1081" 
d="M813 489q0 48 -3.5 97t-13.5 94.5t-28.5 85.5t-48.5 69.5t-73 46.5t-103 17q-90 0 -144 -37.5t-82.5 -96.5t-37.5 -132t-9 -144q0 -49 3 -98.5t12.5 -95t27.5 -85.5t48 -69t74.5 -46t107.5 -17q92 0 145.5 36.5t81.5 95.5t35.5 132t7.5 147zM969 489q0 -110 -21 -205
t-70.5 -165.5t-131 -111t-203.5 -40.5q-123 0 -205.5 40.5t-132.5 111t-71 165.5t-21 205q0 107 22 201.5t72.5 165.5t132.5 112.5t203 41.5q119 0 200.5 -41.5t131.5 -112.5t72 -165.5t22 -201.5zM665 1198q-36 0 -71 9t-70.5 19.5t-71 19.5t-72.5 9q-30 0 -55 -18.5
t-45 -38.5l-61 90q18 16 39 32t43.5 28.5t46.5 20t49 7.5q37 0 72 -9t70 -20.5t70.5 -20.5t72.5 -9q31 0 55.5 19t44.5 40l59 -92q-17 -15 -37.5 -30.5t-43 -28t-46.5 -20t-49 -7.5z" />
    <glyph glyph-name="odieresis" unicode="&#xf6;" horiz-adv-x="1081" 
d="M813 489q0 48 -3.5 97t-13.5 94.5t-28.5 85.5t-48.5 69.5t-73 46.5t-103 17q-90 0 -144 -37.5t-82.5 -96.5t-37.5 -132t-9 -144q0 -49 3 -98.5t12.5 -95t27.5 -85.5t48 -69t74.5 -46t107.5 -17q92 0 145.5 36.5t81.5 95.5t35.5 132t7.5 147zM969 489q0 -110 -21 -205
t-70.5 -165.5t-131 -111t-203.5 -40.5q-123 0 -205.5 40.5t-132.5 111t-71 165.5t-21 205q0 107 22 201.5t72.5 165.5t132.5 112.5t203 41.5q119 0 200.5 -41.5t131.5 -112.5t72 -165.5t22 -201.5zM624 1288q0 22 8.5 41.5t22.5 34t33.5 23t42.5 8.5q21 0 40 -8.5t33.5 -23
t22.5 -34t8 -41.5q0 -21 -8 -40.5t-22.5 -34.5t-33.5 -24t-40 -9q-23 0 -42.5 9t-33.5 24t-22.5 34.5t-8.5 40.5zM241 1288q0 22 8.5 41.5t23.5 34t34.5 23t42.5 8.5q21 0 40 -8.5t33.5 -23t22.5 -34t8 -41.5q0 -21 -8 -40.5t-22.5 -34.5t-33.5 -24t-40 -9q-23 0 -42.5 9
t-34.5 24t-23.5 34.5t-8.5 40.5z" />
    <glyph glyph-name="divide" unicode="&#xf7;" horiz-adv-x="1155" 
d="M578 1126q39 0 67 -28q29 -29 29 -68q0 -22 -7.5 -38t-21.5 -31q-27 -29 -67 -29q-22 0 -38.5 7.5t-31.5 21.5q-27 28 -27 69t27 68q15 14 31.5 21t38.5 7zM578 430q20 0 36.5 -6.5t30.5 -22.5q14 -12 21.5 -29.5t7.5 -37.5q0 -39 -29 -68q-27 -30 -67 -30
q-22 0 -38.5 7.5t-31.5 22.5q-27 27 -27 68q0 20 6.5 37.5t20.5 29.5q15 16 31.5 22.5t38.5 6.5zM90 735h975v-106h-975v106z" />
    <glyph glyph-name="oslash" unicode="&#xf8;" horiz-adv-x="1081" 
d="M813 489q0 67 -7.5 138t-35.5 133l-385 -639q35 -23 75.5 -33t82.5 -10q62 0 106 16.5t74 46t48 69t27 85t12 95t3 99.5zM698 854q-35 25 -75 35t-80 10q-60 0 -103.5 -17t-74 -46.5t-49 -69.5t-29 -85.5t-14 -94.5t-3.5 -97q0 -34 1 -69.5t5.5 -71t13 -69.5t23.5 -64
l385 639v0zM971 489q0 -110 -21 -205t-71 -165.5t-132 -111t-204 -40.5q-57 0 -113.5 11.5t-107.5 35.5l-95 -155l-94 57l100 168q-37 40 -60 88.5t-36.5 101.5t-18.5 108t-5 107q0 107 22 201.5t73 165.5t133 112.5t202 41.5q55 0 111.5 -11.5t107.5 -37.5l94 159l94 -57
l-102 -172q36 -40 59.5 -88t38 -100.5t20 -107t5.5 -106.5z" />
    <glyph glyph-name="ugrave" unicode="&#xf9;" horiz-adv-x="1120" 
d="M940 162q0 -18 1 -39.5t4 -43t7.5 -42.5t10.5 -37h-140q-15 20 -19.5 36.5t-4.5 41.5q-32 -24 -72 -44t-83 -34.5t-87 -22.5t-84 -8q-95 0 -154.5 31.5t-93 86t-45.5 127.5t-12 155v610l149 31v-641q0 -57 6.5 -109.5t28.5 -93t62 -64.5t108 -24q32 0 68 6t71 17t68.5 26
t61.5 33v819l149 31v-848zM764 1212l-49 -84l-405 183l77 139z" />
    <glyph glyph-name="uacute" unicode="&#xfa;" horiz-adv-x="1120" 
d="M940 162q0 -18 1 -39.5t4 -43t7.5 -42.5t10.5 -37h-140q-15 20 -19.5 36.5t-4.5 41.5q-32 -24 -72 -44t-83 -34.5t-87 -22.5t-84 -8q-95 0 -154.5 31.5t-93 86t-45.5 127.5t-12 155v610l149 31v-641q0 -57 6.5 -109.5t28.5 -93t62 -64.5t108 -24q32 0 68 6t71 17t68.5 26
t61.5 33v819l149 31v-848zM788 1309l-405 -183l-49 84l377 238z" />
    <glyph glyph-name="ucircumflex" unicode="&#xfb;" horiz-adv-x="1120" 
d="M940 162q0 -18 1 -39.5t4 -43t7.5 -42.5t10.5 -37h-140q-15 20 -19.5 36.5t-4.5 41.5q-32 -24 -72 -44t-83 -34.5t-87 -22.5t-84 -8q-95 0 -154.5 31.5t-93 86t-45.5 127.5t-12 155v610l149 31v-641q0 -57 6.5 -109.5t28.5 -93t62 -64.5t108 -24q32 0 68 6t71 17t68.5 26
t61.5 33v819l149 31v-848zM549 1407l295 -147l-43 -93l-252 101l-252 -101l-45 93z" />
    <glyph glyph-name="udieresis" unicode="&#xfc;" horiz-adv-x="1120" 
d="M940 162q0 -18 1 -39.5t4 -43t7.5 -42.5t10.5 -37h-140q-15 20 -19.5 36.5t-4.5 41.5q-32 -24 -72 -44t-83 -34.5t-87 -22.5t-84 -8q-95 0 -154.5 31.5t-93 86t-45.5 127.5t-12 155v610l149 31v-641q0 -57 6.5 -109.5t28.5 -93t62 -64.5t108 -24q32 0 68 6t71 17t68.5 26
t61.5 33v819l149 31v-848zM631 1288q0 22 8.5 41.5t22.5 34t33.5 23t42.5 8.5q21 0 40 -8.5t33.5 -23t22.5 -34t8 -41.5q0 -21 -8 -40.5t-22.5 -34.5t-33.5 -24t-40 -9q-23 0 -42.5 9t-33.5 24t-22.5 34.5t-8.5 40.5zM248 1288q0 22 8.5 41.5t23.5 34t34.5 23t42.5 8.5
q21 0 40 -8.5t33.5 -23t22.5 -34t8 -41.5q0 -21 -8 -40.5t-22.5 -34.5t-33.5 -24t-40 -9q-23 0 -42.5 9t-34.5 24t-23.5 34.5t-8.5 40.5z" />
    <glyph glyph-name="yacute" unicode="&#xfd;" horiz-adv-x="858" 
d="M512 0q-20 -57 -40.5 -117.5t-47 -117.5t-61.5 -108t-84 -89l-76 74q30 23 56 68t47.5 97.5t39 104.5t29.5 88q-6 0 -12 7.5t-11.5 17.5t-9.5 20.5t-6 17.5l-316 916l148 31l270 -836l260 805h160zM743 1309l-405 -183l-49 84l377 238z" />
    <glyph glyph-name="thorn" unicode="&#xfe;" horiz-adv-x="1087" 
d="M174 1421l145 31v-526q33 17 71 32t78.5 26.5t81 18.5t77.5 7q105 0 172.5 -38.5t106.5 -102.5t54 -148t15 -174q0 -69 -8 -138.5t-26.5 -133.5t-49.5 -120t-76.5 -97.5t-108 -65t-143.5 -23.5q-62 0 -123.5 8t-120.5 23v-399h-145v1820zM319 111q53 -16 109.5 -24.5
t112.5 -8.5q65 0 111 20.5t77 55.5t48.5 81.5t26.5 98.5t11 107t2 106q0 56 -8.5 118t-33 114t-68.5 86t-115 34q-32 0 -68 -7.5t-72.5 -20t-70.5 -28t-62 -30.5v-702z" />
    <glyph glyph-name="ydieresis" unicode="&#xff;" horiz-adv-x="858" 
d="M512 0q-20 -57 -40.5 -117.5t-47 -117.5t-61.5 -108t-84 -89l-76 74q30 23 56 68t47.5 97.5t39 104.5t29.5 88q-6 0 -12 7.5t-11.5 17.5t-9.5 20.5t-6 17.5l-316 916l148 31l270 -836l260 805h160zM515 1288q0 22 8.5 41.5t22.5 34t33.5 23t42.5 8.5q21 0 40 -8.5
t33.5 -23t22.5 -34t8 -41.5q0 -21 -8 -40.5t-22.5 -34.5t-33.5 -24t-40 -9q-23 0 -42.5 9t-33.5 24t-22.5 34.5t-8.5 40.5zM132 1288q0 22 8.5 41.5t23.5 34t34.5 23t42.5 8.5q21 0 40 -8.5t33.5 -23t22.5 -34t8 -41.5q0 -21 -8 -40.5t-22.5 -34.5t-33.5 -24t-40 -9
q-23 0 -42.5 9t-34.5 24t-23.5 34.5t-8.5 40.5z" />
    <glyph glyph-name="dotlessi" unicode="&#x131;" horiz-adv-x="498" 
d="M174 979l150 31v-1010h-150v979z" />
    <glyph glyph-name="Lslash" unicode="&#x141;" horiz-adv-x="993" 
d="M342 1366v-524l305 176v-129l-305 -176v-580h631v-133h-780v627l-109 -64v127l109 66v610h149z" />
    <glyph glyph-name="lslash" unicode="&#x142;" horiz-adv-x="498" 
d="M317 846l111 63v-127l-111 -63v-486q0 -29 3 -53.5t12 -46t25.5 -39.5t43.5 -33l-32 -94q-59 20 -98 41.5t-62 52t-32 75t-9 110.5v385l-111 -64v129l111 62v661l149 33v-606z" />
    <glyph glyph-name="OE" unicode="&#x152;" horiz-adv-x="1690" 
d="M860 1223q-34 3 -61.5 5t-52 3t-48.5 1.5t-51 0.5q-83 0 -142 -21.5t-99 -59t-63 -89.5t-35 -113t-15.5 -128.5t-3.5 -137.5t3.5 -138.5t15.5 -129.5t35 -113t63 -89.5t98.5 -59t142.5 -21.5q54 0 108 1t105 7v1082v0zM1595 1233h-587v-434h462v-133h-462v-533h620v-133
h-979q-107 0 -187.5 24t-137.5 68t-94 106t-58.5 137t-30 161.5t-8.5 179.5t8.5 180t30 163.5t58 140.5t94 109.5t137 71t186.5 25.5h981z" />
    <glyph glyph-name="oe" unicode="&#x153;" horiz-adv-x="1763" 
d="M813 489q0 48 -3.5 97t-13.5 94.5t-28.5 85.5t-48.5 69.5t-73 46.5t-103 17q-90 0 -144 -37.5t-82.5 -96.5t-37.5 -132t-9 -144q0 -74 7.5 -147.5t35 -132t82 -95t148.5 -36.5q62 0 106 16.5t74 46t48 69t27 85t12 95t3 99.5zM1505 612q0 58 -18 110.5t-51.5 91.5
t-82.5 62t-110 23q-62 0 -110 -23t-81.5 -62t-51 -91.5t-17.5 -110.5h522v0zM973 502q0 -44 4.5 -93t15.5 -96t30.5 -89.5t49.5 -75t72 -51.5t98 -19q68 0 141.5 6t141.5 25l14 -109q-69 -20 -147 -26.5t-150 -6.5q-109 0 -198 44.5t-146 138.5q-20 -49 -60.5 -83.5
t-90.5 -56.5t-104 -32.5t-101 -10.5q-123 0 -205.5 40.5t-132.5 111t-71 165.5t-21 205q0 107 22 201.5t73 165.5t133 112.5t202 41.5q47 0 99 -10.5t100.5 -32t88 -55.5t60.5 -81q60 97 151.5 138t200.5 41q117 0 198.5 -39.5t132.5 -108t74 -161.5t23 -199h-698z" />
    <glyph glyph-name="Scaron" unicode="&#x160;" horiz-adv-x="991" 
d="M106 133q73 -15 144.5 -23t142.5 -8q66 0 128.5 16t111.5 49.5t78.5 85.5t29.5 124q0 69 -28 116t-73.5 81t-104 59.5t-119 51t-119 55.5t-104 73t-73.5 102.5t-28 145.5q0 96 34 160t91.5 102t133 54t159.5 16t165 -8.5t165 -22.5l-17 -131q-71 11 -142 20t-142 9
q-51 0 -103 -8t-93.5 -29.5t-68 -60.5t-26.5 -101q0 -68 28 -114t73.5 -79t104 -57t120 -48.5t120 -54t104 -73t73.5 -106t28 -152.5q0 -102 -38.5 -179t-104 -128.5t-151.5 -77t-181 -25.5q-84 0 -166 10.5t-166 22.5zM260 1771l252 -100l252 100l43 -92l-295 -148
l-297 148z" />
    <glyph glyph-name="scaron" unicode="&#x161;" horiz-adv-x="840" 
d="M694 868q-63 17 -127 24t-129 7q-33 0 -69 -4t-66.5 -17.5t-50 -38.5t-19.5 -67q0 -44 22 -74.5t58 -52.5t81.5 -39.5t93.5 -36t93.5 -42t81.5 -57.5t58 -82.5t22 -117.5q0 -78 -33.5 -135t-87.5 -94t-122.5 -54.5t-137.5 -17.5q-74 0 -146 10t-146 21l14 111
q60 -11 118 -22t120 -11q43 0 90 10t86 33t64.5 59.5t25.5 89.5q0 48 -22 81t-58 58t-81.5 44t-93.5 38.5t-93.5 42.5t-81.5 55t-58 76.5t-22 106.5q0 76 31.5 123t81 72.5t111.5 34t124 8.5q72 0 142.5 -9t140.5 -24zM169 1409l252 -100l252 100l43 -92l-295 -148l-297 148
z" />
    <glyph glyph-name="Ydieresis" unicode="&#x178;" horiz-adv-x="1018" 
d="M182 1366l326 -655l323 655h166l-413 -831v-535h-150v535l-414 831h162zM595 1657q0 22 8.5 41.5t22.5 34t33.5 23t42.5 8.5q21 0 40 -8.5t33.5 -23t22.5 -34t8 -41.5q0 -21 -8 -40.5t-22.5 -34.5t-33.5 -24t-40 -9q-23 0 -42.5 9t-33.5 24t-22.5 34.5t-8.5 40.5z
M212 1657q0 22 8.5 41.5t23.5 34t34.5 23t42.5 8.5q21 0 40 -8.5t33.5 -23t22.5 -34t8 -41.5q0 -21 -8 -40.5t-22.5 -34.5t-33.5 -24t-40 -9q-23 0 -42.5 9t-34.5 24t-23.5 34.5t-8.5 40.5z" />
    <glyph glyph-name="Zcaron" unicode="&#x17d;" horiz-adv-x="1038" 
d="M952 1366l15 -102l-699 -1131h684v-133h-864l-16 102l700 1131h-684v133h864zM260 1771l252 -100l252 100l43 -92l-295 -148l-297 148z" />
    <glyph glyph-name="zcaron" unicode="&#x17e;" horiz-adv-x="911" 
d="M834 979l16 -78l-580 -790h564v-111h-756l-17 78l580 790h-563v111h756zM208 1409l252 -100l252 100l43 -92l-295 -148l-297 148z" />
    <glyph glyph-name="florin" unicode="&#x192;" horiz-adv-x="844" 
d="M358 1090q23 172 123 267t279 95q26 0 55 -3t55 -11l-28 -113q-25 5 -49.5 7.5t-49.5 2.5q-56 0 -94.5 -14.5t-64.5 -40t-41 -60t-24 -74t-14.5 -82.5t-10.5 -85h213l-50 -111h-180l-115 -811q-12 -85 -36.5 -154.5t-63 -128t-92 -109t-123.5 -97.5l-53 86q50 41 88.5 93
t66.5 110.5t46 121t26 125.5l107 764h-111l14 111h113z" />
    <glyph glyph-name="circumflex" unicode="&#x2c6;" 
d="M514 1407l295 -147l-43 -93l-252 101l-252 -101l-45 93z" />
    <glyph glyph-name="caron" unicode="&#x2c7;" 
d="M260 1409l252 -100l252 100l43 -92l-295 -148l-297 148z" />
    <glyph glyph-name="breve" unicode="&#x2d8;" 
d="M287 1389q20 -21 46.5 -40t56.5 -33.5t61.5 -23t60.5 -8.5t60 8.5t60.5 23t56 33.5t46.5 40l76 -58q-21 -41 -53.5 -72t-72 -52.5t-84 -32.5t-89.5 -11q-44 0 -88 11t-83.5 32.5t-72.5 52.5t-55 72l74 58v0z" />
    <glyph glyph-name="dotaccent" unicode="&#x2d9;" 
d="M406 1288q0 22 8.5 41.5t23.5 34t34.5 23t41.5 8.5q21 0 40 -8.5t33.5 -23t22.5 -34t8 -41.5t-8 -41.5t-22.5 -34.5t-33.5 -23.5t-40 -8.5q-22 0 -41.5 8.5t-34.5 23.5t-23.5 34.5t-8.5 41.5z" />
    <glyph glyph-name="ring" unicode="&#x2da;" 
d="M512 1405q-19 0 -36 -8t-30 -21t-20.5 -30.5t-7.5 -36.5q0 -20 7.5 -37.5t20.5 -30.5t30 -21t36 -8t36.5 8t30.5 21t21 30.5t8 37.5q0 19 -8 36.5t-21 30.5t-30.5 21t-36.5 8zM512 1124q-38 0 -71.5 14.5t-58.5 40t-39.5 59t-14.5 71.5t14.5 71.5t39.5 58.5t58.5 39.5
t71.5 14.5q37 0 70.5 -14.5t59 -39.5t40 -58.5t14.5 -71.5t-14.5 -71.5t-40 -59t-59 -40t-70.5 -14.5z" />
    <glyph glyph-name="ogonek" unicode="&#x2db;" 
d="M676 -403q-31 -14 -67 -21.5t-68 -7.5q-56 0 -93 21t-60 55.5t-32.5 80t-9.5 93.5q0 49 9 102.5t26 99.5l92 -22q-9 -35 -13.5 -73.5t-4.5 -74.5q0 -28 3.5 -55.5t15 -49t33 -35t56.5 -13.5q20 0 40.5 3.5t39.5 12.5z" />
    <glyph glyph-name="tilde" unicode="&#x2dc;" 
d="M647 1198q-36 0 -71 9t-70.5 19.5t-71 19.5t-72.5 9q-30 0 -55 -18.5t-45 -38.5l-61 90q18 16 39 32t43.5 28.5t46.5 20t49 7.5q37 0 72 -9t70 -20.5t70.5 -20.5t72.5 -9q31 0 55.5 19t44.5 40l59 -92q-17 -15 -37.5 -30.5t-43 -28t-46.5 -20t-49 -7.5z" />
    <glyph glyph-name="hungarumlaut" unicode="&#x2dd;" 
d="M221 1204l191 295l110 -84l-217 -276zM502 1204l190 295l111 -84l-217 -276z" />
    <glyph glyph-name="Delta" unicode="&#x394;" horiz-adv-x="864" 
d="M770 1352h-676v-1338h676v1338zM80 0v1366h704v-1366h-704z" />
    <glyph glyph-name="Delta" unicode="&#x2206;" horiz-adv-x="864" 
d="M770 1352h-676v-1338h676v1338zM80 0v1366h704v-1366h-704z" />
    <glyph glyph-name="Omega" unicode="&#x3a9;" horiz-adv-x="864" 
d="M770 1352h-676v-1338h676v1338zM80 0v1366h704v-1366h-704z" />
    <glyph glyph-name="Omega" unicode="&#x2126;" horiz-adv-x="864" 
d="M770 1352h-676v-1338h676v1338zM80 0v1366h704v-1366h-704z" />
    <glyph glyph-name="pi" unicode="&#x3c0;" horiz-adv-x="864" 
d="M770 1352h-676v-1338h676v1338zM80 0v1366h704v-1366h-704z" />
    <glyph glyph-name="endash" unicode="&#x2013;" 
d="M1024 614v-110h-1024v110h1024z" />
    <glyph glyph-name="emdash" unicode="&#x2014;" horiz-adv-x="2048" 
d="M2048 614v-110h-2048v110h2048z" />
    <glyph glyph-name="quoteleft" unicode="&#x2018;" horiz-adv-x="459" 
d="M123 1083q0 43 10.5 85.5t28.5 82t42 76t52 68.5l35 -27q-23 -42 -41.5 -97.5t-18.5 -105.5q22 0 42 -8.5t34 -23.5t22.5 -34.5t8.5 -41.5q0 -23 -8.5 -42.5t-22.5 -33.5t-34 -22.5t-42 -8.5q-29 0 -49.5 11t-33.5 29.5t-19 42.5t-6 50z" />
    <glyph glyph-name="quoteright" unicode="&#x2019;" horiz-adv-x="459" 
d="M336 1260q0 -42 -10 -84.5t-27.5 -82t-41.5 -76t-52 -67.5l-37 27q12 21 23 46t19.5 51.5t13.5 53.5t5 52q-22 0 -41.5 8.5t-34.5 23.5t-23.5 34.5t-8.5 41.5t8.5 42t23.5 34t34.5 22.5t41.5 8.5q28 0 48.5 -11t33.5 -30t19 -43t6 -51z" />
    <glyph glyph-name="quotesinglbase" unicode="&#x201a;" horiz-adv-x="477" 
d="M342 49q0 -42 -10 -84t-27.5 -82t-41 -76t-50.5 -67l-39 27q12 21 23 46t19.5 51.5t14 53.5t5.5 51q-23 0 -42.5 8t-33.5 22.5t-22.5 33.5t-8.5 41t8.5 41.5t22.5 34.5t33.5 23.5t42.5 8.5q28 0 48 -11t33 -29.5t19 -42.5t6 -50z" />
    <glyph glyph-name="quotedblleft" unicode="&#x201c;" horiz-adv-x="754" 
d="M416 1083q0 43 10.5 85.5t28.5 82t42 76t52 68.5l35 -27q-23 -42 -41.5 -97.5t-18.5 -105.5q22 0 42 -8.5t35 -23.5t23.5 -34.5t8.5 -41.5q0 -23 -8.5 -42.5t-23.5 -33.5t-35 -22.5t-42 -8.5q-28 0 -48.5 11t-33.5 29.5t-19.5 42.5t-6.5 50zM123 1083q0 43 10.5 85.5
t28.5 82t42 76t52 68.5l35 -27q-23 -42 -41.5 -97.5t-18.5 -105.5q22 0 42 -8.5t34 -23.5t22.5 -34.5t8.5 -41.5q0 -23 -8.5 -42.5t-22.5 -33.5t-34 -22.5t-42 -8.5q-29 0 -49.5 11t-33.5 29.5t-19 42.5t-6 50z" />
    <glyph glyph-name="quotedblright" unicode="&#x201d;" horiz-adv-x="754" 
d="M336 1260q0 -42 -10 -84.5t-27.5 -82t-41.5 -76t-52 -67.5l-37 27q12 21 23 46t19.5 51.5t13.5 53.5t5 52q-22 0 -41.5 8.5t-34.5 23.5t-23.5 34.5t-8.5 41.5t8.5 42t23.5 34t34.5 22.5t41.5 8.5q28 0 48.5 -11t33.5 -30t19 -43t6 -51zM631 1260q0 -42 -10.5 -84.5
t-28.5 -82t-42.5 -76t-51.5 -67.5l-35 27q23 42 41 97.5t18 105.5q-22 0 -41.5 8.5t-34.5 23.5t-23.5 34.5t-8.5 41.5t8.5 42t23.5 34t34.5 22.5t41.5 8.5q29 0 50 -11t34 -30t19 -43t6 -51z" />
    <glyph glyph-name="quotedblbase" unicode="&#x201e;" horiz-adv-x="752" 
d="M334 49q0 -42 -10 -84t-27.5 -82t-41 -76t-50.5 -67l-39 27q12 21 23 46t19.5 51.5t13.5 53.5t5 51q-22 0 -41.5 8t-33.5 22.5t-22.5 33.5t-8.5 41t8.5 41.5t22.5 34.5t33.5 23.5t41.5 8.5q28 0 48.5 -11t33.5 -29.5t19 -42.5t6 -50zM629 49q0 -42 -10.5 -84t-28.5 -82
t-41.5 -76t-50.5 -67l-37 27q12 21 22.5 46t18.5 51.5t13 53.5t5 51q-22 0 -41.5 8t-33.5 22.5t-22.5 33.5t-8.5 41t8.5 41.5t22.5 34.5t33.5 23.5t41.5 8.5q30 0 51 -11t33.5 -29.5t18.5 -42.5t6 -50z" />
    <glyph glyph-name="dagger" unicode="&#x2020;" 
d="M428 979v387h150v-387h321l-33 -111h-288v-868h-150v868h-303v111h303z" />
    <glyph glyph-name="daggerdbl" unicode="&#x2021;" 
d="M596 397v-397h-150v397h-305v111h305v360h-305v111h305v387h150v-387h319l-32 -111h-287v-360h319l-32 -111h-287z" />
    <glyph glyph-name="bullet" unicode="&#x2022;" horiz-adv-x="647" 
d="M143 655q0 38 14 71.5t38.5 58t57.5 39t71 14.5q37 0 70 -14.5t57.5 -39t38.5 -58t14 -71.5t-14 -70.5t-38.5 -57t-57.5 -38.5t-70 -14q-38 0 -71 14t-57.5 38.5t-38.5 57t-14 70.5z" />
    <glyph glyph-name="ellipsis" unicode="&#x2026;" horiz-adv-x="2048" 
d="M1599 74q0 22 8.5 41.5t23 34.5t34 23.5t41.5 8.5t41.5 -8.5t33.5 -23.5t22.5 -34.5t8.5 -41.5t-8.5 -41.5t-22.5 -34t-33.5 -23t-41.5 -8.5t-41.5 8.5t-34 23t-23 34t-8.5 41.5zM918 74q0 22 8.5 41.5t22.5 34.5t33.5 23.5t41.5 8.5t41.5 -8.5t33.5 -23.5t22.5 -34.5
t8.5 -41.5t-8.5 -41.5t-22.5 -34t-33.5 -23t-41.5 -8.5t-41.5 8.5t-33.5 23t-22.5 34t-8.5 41.5zM236 74q0 22 8.5 41.5t22.5 34.5t33.5 23.5t41.5 8.5t41.5 -8.5t34 -23.5t23 -34.5t8.5 -41.5t-8.5 -41.5t-23 -34t-34 -23t-41.5 -8.5t-41.5 8.5t-33.5 23t-22.5 34
t-8.5 41.5z" />
    <glyph glyph-name="perthousand" unicode="&#x2030;" horiz-adv-x="2212" 
d="M1845 549q-47 0 -76.5 -20t-46.5 -52.5t-23.5 -74.5t-6.5 -87q0 -46 6 -87.5t22.5 -73.5t46.5 -51t78 -19q50 0 80.5 19t47.5 51t22.5 73.5t5.5 87.5q0 45 -6.5 87t-24 74.5t-47.5 52.5t-78 20zM1845 -14q-79 0 -133 26t-87 70.5t-47.5 104.5t-14.5 128q0 67 15 127.5
t49 106t87.5 72t130.5 26.5t131 -26.5t88.5 -72t50 -106t15.5 -127.5q0 -68 -15 -128t-48.5 -104.5t-88 -70.5t-133.5 -26zM365 1278q-47 0 -77 -19.5t-47 -52t-23.5 -74t-6.5 -85.5q0 -46 6 -88t22.5 -74t47 -51t78.5 -19q50 0 80.5 19t47 51t22 74t5.5 88q0 45 -6 86.5
t-23 74t-47.5 51.5t-78.5 19zM1176 549q-48 0 -78 -20t-47.5 -52.5t-24 -74.5t-6.5 -87q0 -46 6 -87.5t22.5 -73.5t47 -51t80.5 -19q49 0 79.5 19t47 51t22.5 73.5t6 87.5q0 45 -6.5 87t-23.5 74.5t-47 52.5t-78 20zM365 715q-78 0 -132 26t-87.5 71t-48.5 105.5t-15 129.5
q0 67 15.5 127.5t49 105.5t87.5 71.5t131 26.5q76 0 130.5 -26.5t89 -71.5t50.5 -105.5t16 -127.5q0 -69 -15 -129.5t-49 -105.5t-88.5 -71t-133.5 -26zM1176 -14q-79 0 -133 26t-87.5 70.5t-48 104.5t-14.5 128q0 67 15.5 127.5t49 106t87.5 72t131 26.5q76 0 130 -26.5
t87.5 -72t49 -106t15.5 -127.5q0 -68 -14.5 -128t-47.5 -104.5t-87 -70.5t-133 -26zM500 -31l-101 45l643 1381l101 -45z" />
    <glyph glyph-name="guilsinglleft" unicode="&#x2039;" horiz-adv-x="709" 
d="M322 492l256 -328l-119 -90l-328 418l328 415l119 -90z" />
    <glyph glyph-name="guilsinglright" unicode="&#x203a;" horiz-adv-x="709" 
d="M252 907l326 -415l-326 -418l-121 90l258 328l-258 325z" />
    <glyph glyph-name="fraction" unicode="&#x2044;" horiz-adv-x="752" 
d="M915 1520l-946 -1880h-133l948 1880h131z" />
    <glyph glyph-name="fraction" unicode="&#x2215;" horiz-adv-x="752" 
d="M915 1520l-946 -1880h-133l948 1880h131z" />
    <glyph glyph-name="Euro" unicode="&#x20ac;" horiz-adv-x="1161" 
d="M1040 1235q-75 14 -154.5 19.5t-156.5 5.5q-90 0 -151.5 -27t-101.5 -75.5t-62 -116.5t-33 -150h629v-109h-637q-2 -26 -2 -51v-51v-51t2 -51h637v-109h-629q11 -81 33 -149t62 -117t101.5 -76t151.5 -27t180 4.5t178 20.5l15 -127q-43 -12 -90.5 -18.5t-95.5 -9.5
t-96 -3h-91q-122 0 -210.5 36t-148.5 101.5t-94.5 158t-48.5 206.5h-129v109h119q-6 102 0 204h-119v109h129q14 114 48.5 206.5t94.5 158t148.5 101.5t210.5 36q82 0 164.5 -8t163.5 -23z" />
    <glyph glyph-name="trademark" unicode="&#x2122;" horiz-adv-x="1225" 
d="M350 1282v-444h-92v444h-137v84h377l-23 -84h-125zM936 1133l-102 -295h-84l-101 295l-33 -295h-92l60 528h84l125 -369l122 369h86l62 -528h-94z" />
    <glyph glyph-name="partialdiff" unicode="&#x2202;" horiz-adv-x="864" 
d="M770 1352h-676v-1338h676v1338zM80 0v1366h704v-1366h-704z" />
    <glyph glyph-name="product" unicode="&#x220f;" horiz-adv-x="864" 
d="M770 1352h-676v-1338h676v1338zM80 0v1366h704v-1366h-704z" />
    <glyph glyph-name="summation" unicode="&#x2211;" horiz-adv-x="864" 
d="M770 1352h-676v-1338h676v1338zM80 0v1366h704v-1366h-704z" />
    <glyph glyph-name="minus" unicode="&#x2212;" horiz-adv-x="1155" 
d="M104 735h975v-106h-975v106z" />
    <glyph glyph-name="radical" unicode="&#x221a;" horiz-adv-x="864" 
d="M770 1352h-676v-1338h676v1338zM80 0v1366h704v-1366h-704z" />
    <glyph glyph-name="infinity" unicode="&#x221e;" horiz-adv-x="864" 
d="M770 1352h-676v-1338h676v1338zM80 0v1366h704v-1366h-704z" />
    <glyph glyph-name="integral" unicode="&#x222b;" horiz-adv-x="864" 
d="M770 1352h-676v-1338h676v1338zM80 0v1366h704v-1366h-704z" />
    <glyph glyph-name="approxequal" unicode="&#x2248;" horiz-adv-x="864" 
d="M770 1352h-676v-1338h676v1338zM80 0v1366h704v-1366h-704z" />
    <glyph glyph-name="notequal" unicode="&#x2260;" horiz-adv-x="864" 
d="M770 1352h-676v-1338h676v1338zM80 0v1366h704v-1366h-704z" />
    <glyph glyph-name="lessequal" unicode="&#x2264;" horiz-adv-x="864" 
d="M770 1352h-676v-1338h676v1338zM80 0v1366h704v-1366h-704z" />
    <glyph glyph-name="greaterequal" unicode="&#x2265;" horiz-adv-x="864" 
d="M770 1352h-676v-1338h676v1338zM80 0v1366h704v-1366h-704z" />
    <glyph glyph-name="lozenge" unicode="&#x25ca;" horiz-adv-x="864" 
d="M770 1352h-676v-1338h676v1338zM80 0v1366h704v-1366h-704z" />
    <glyph glyph-name="fi" unicode="&#xfb01;" horiz-adv-x="1106" 
d="M197 1090q0 78 16.5 135.5t43.5 97.5t63 65.5t74.5 39.5t78 19t74.5 5q51 0 81.5 -7l30.5 -7l-14 -113q-72 13 -122 9t-83 -20.5t-51.5 -42.5t-27.5 -56.5t-11 -63t-2 -61.5v-111h584v-979h-150v868h-434v-868h-151v868h-111v111h111v111z" />
    <glyph glyph-name="fl" unicode="&#xfb02;" horiz-adv-x="1096" 
d="M915 233q0 -29 2.5 -53.5t11.5 -45t25.5 -38.5t44.5 -33l-32 -94q-59 20 -98.5 41.5t-62.5 52t-32.5 75t-9.5 110.5v1173l151 31v-1219zM197 1087q0 79 16.5 137t43.5 98.5t62.5 65.5t74.5 39.5t78 19.5t73 5q52 0 83 -7l31 -7l-14 -113q-72 13 -122 9t-83 -20.5
t-51.5 -43t-27.5 -57t-11 -63.5t-2 -63v-108h209l-31 -111h-178v-868h-151v868h-111v111h111v108z" />
    <glyph glyph-name="nonbreakingspace" horiz-adv-x="492" 
 />
    <glyph glyph-name="apple" horiz-adv-x="864" 
d="M770 1352h-676v-1338h676v1338zM80 0v1366h704v-1366h-704z" />
    <glyph glyph-name="FL274" 
 />
    </font>
</defs>
</svg>
